%TF.GenerationSoftware,KiCad,Pcbnew,8.0.7*%
%TF.CreationDate,2025-10-03T17:15:43+05:30*%
%TF.ProjectId,ESP8266_PLC,45535038-3236-4365-9f50-4c432e6b6963,rev?*%
%TF.SameCoordinates,Original*%
%TF.FileFunction,Legend,Top*%
%TF.FilePolarity,Positive*%
%FSLAX46Y46*%
G04 Gerber Fmt 4.6, Leading zero omitted, Abs format (unit mm)*
G04 Created by KiCad (PCBNEW 8.0.7) date 2025-10-03 17:15:43*
%MOMM*%
%LPD*%
G01*
G04 APERTURE LIST*
%ADD10C,0.200000*%
%ADD11C,0.150000*%
%ADD12C,0.120000*%
%ADD13C,0.000000*%
G04 APERTURE END LIST*
D10*
X111382780Y-93059673D02*
X112382780Y-93059673D01*
X112382780Y-93726339D02*
X112382780Y-93916815D01*
X112382780Y-93916815D02*
X112335161Y-94012053D01*
X112335161Y-94012053D02*
X112239923Y-94107291D01*
X112239923Y-94107291D02*
X112049447Y-94154910D01*
X112049447Y-94154910D02*
X111716114Y-94154910D01*
X111716114Y-94154910D02*
X111525638Y-94107291D01*
X111525638Y-94107291D02*
X111430400Y-94012053D01*
X111430400Y-94012053D02*
X111382780Y-93916815D01*
X111382780Y-93916815D02*
X111382780Y-93726339D01*
X111382780Y-93726339D02*
X111430400Y-93631101D01*
X111430400Y-93631101D02*
X111525638Y-93535863D01*
X111525638Y-93535863D02*
X111716114Y-93488244D01*
X111716114Y-93488244D02*
X112049447Y-93488244D01*
X112049447Y-93488244D02*
X112239923Y-93535863D01*
X112239923Y-93535863D02*
X112335161Y-93631101D01*
X112335161Y-93631101D02*
X112382780Y-93726339D01*
X111763733Y-94583482D02*
X111763733Y-95345387D01*
X111382780Y-96345386D02*
X111382780Y-95773958D01*
X111382780Y-96059672D02*
X112382780Y-96059672D01*
X112382780Y-96059672D02*
X112239923Y-95964434D01*
X112239923Y-95964434D02*
X112144685Y-95869196D01*
X112144685Y-95869196D02*
X112097066Y-95773958D01*
X112382780Y-96678720D02*
X112382780Y-97297767D01*
X112382780Y-97297767D02*
X112001828Y-96964434D01*
X112001828Y-96964434D02*
X112001828Y-97107291D01*
X112001828Y-97107291D02*
X111954209Y-97202529D01*
X111954209Y-97202529D02*
X111906590Y-97250148D01*
X111906590Y-97250148D02*
X111811352Y-97297767D01*
X111811352Y-97297767D02*
X111573257Y-97297767D01*
X111573257Y-97297767D02*
X111478019Y-97250148D01*
X111478019Y-97250148D02*
X111430400Y-97202529D01*
X111430400Y-97202529D02*
X111382780Y-97107291D01*
X111382780Y-97107291D02*
X111382780Y-96821577D01*
X111382780Y-96821577D02*
X111430400Y-96726339D01*
X111430400Y-96726339D02*
X111478019Y-96678720D01*
X111628019Y-79451101D02*
X111580400Y-79403482D01*
X111580400Y-79403482D02*
X111532780Y-79260625D01*
X111532780Y-79260625D02*
X111532780Y-79165387D01*
X111532780Y-79165387D02*
X111580400Y-79022530D01*
X111580400Y-79022530D02*
X111675638Y-78927292D01*
X111675638Y-78927292D02*
X111770876Y-78879673D01*
X111770876Y-78879673D02*
X111961352Y-78832054D01*
X111961352Y-78832054D02*
X112104209Y-78832054D01*
X112104209Y-78832054D02*
X112294685Y-78879673D01*
X112294685Y-78879673D02*
X112389923Y-78927292D01*
X112389923Y-78927292D02*
X112485161Y-79022530D01*
X112485161Y-79022530D02*
X112532780Y-79165387D01*
X112532780Y-79165387D02*
X112532780Y-79260625D01*
X112532780Y-79260625D02*
X112485161Y-79403482D01*
X112485161Y-79403482D02*
X112437542Y-79451101D01*
X111580400Y-79832054D02*
X111532780Y-79974911D01*
X111532780Y-79974911D02*
X111532780Y-80213006D01*
X111532780Y-80213006D02*
X111580400Y-80308244D01*
X111580400Y-80308244D02*
X111628019Y-80355863D01*
X111628019Y-80355863D02*
X111723257Y-80403482D01*
X111723257Y-80403482D02*
X111818495Y-80403482D01*
X111818495Y-80403482D02*
X111913733Y-80355863D01*
X111913733Y-80355863D02*
X111961352Y-80308244D01*
X111961352Y-80308244D02*
X112008971Y-80213006D01*
X112008971Y-80213006D02*
X112056590Y-80022530D01*
X112056590Y-80022530D02*
X112104209Y-79927292D01*
X112104209Y-79927292D02*
X112151828Y-79879673D01*
X112151828Y-79879673D02*
X112247066Y-79832054D01*
X112247066Y-79832054D02*
X112342304Y-79832054D01*
X112342304Y-79832054D02*
X112437542Y-79879673D01*
X112437542Y-79879673D02*
X112485161Y-79927292D01*
X112485161Y-79927292D02*
X112532780Y-80022530D01*
X112532780Y-80022530D02*
X112532780Y-80260625D01*
X112532780Y-80260625D02*
X112485161Y-80403482D01*
X112532780Y-81022530D02*
X112532780Y-81213006D01*
X112532780Y-81213006D02*
X112485161Y-81308244D01*
X112485161Y-81308244D02*
X112389923Y-81403482D01*
X112389923Y-81403482D02*
X112199447Y-81451101D01*
X112199447Y-81451101D02*
X111866114Y-81451101D01*
X111866114Y-81451101D02*
X111675638Y-81403482D01*
X111675638Y-81403482D02*
X111580400Y-81308244D01*
X111580400Y-81308244D02*
X111532780Y-81213006D01*
X111532780Y-81213006D02*
X111532780Y-81022530D01*
X111532780Y-81022530D02*
X111580400Y-80927292D01*
X111580400Y-80927292D02*
X111675638Y-80832054D01*
X111675638Y-80832054D02*
X111866114Y-80784435D01*
X111866114Y-80784435D02*
X112199447Y-80784435D01*
X112199447Y-80784435D02*
X112389923Y-80832054D01*
X112389923Y-80832054D02*
X112485161Y-80927292D01*
X112485161Y-80927292D02*
X112532780Y-81022530D01*
X119344435Y-118327219D02*
X119582530Y-119327219D01*
X119582530Y-119327219D02*
X119773006Y-118612933D01*
X119773006Y-118612933D02*
X119963482Y-119327219D01*
X119963482Y-119327219D02*
X120201578Y-118327219D01*
X121058720Y-119327219D02*
X120582530Y-119327219D01*
X120582530Y-119327219D02*
X120582530Y-118327219D01*
X121392054Y-118803409D02*
X121725387Y-118803409D01*
X121868244Y-119327219D02*
X121392054Y-119327219D01*
X121392054Y-119327219D02*
X121392054Y-118327219D01*
X121392054Y-118327219D02*
X121868244Y-118327219D01*
X122296816Y-119327219D02*
X122296816Y-118327219D01*
X122296816Y-118327219D02*
X122534911Y-118327219D01*
X122534911Y-118327219D02*
X122677768Y-118374838D01*
X122677768Y-118374838D02*
X122773006Y-118470076D01*
X122773006Y-118470076D02*
X122820625Y-118565314D01*
X122820625Y-118565314D02*
X122868244Y-118755790D01*
X122868244Y-118755790D02*
X122868244Y-118898647D01*
X122868244Y-118898647D02*
X122820625Y-119089123D01*
X122820625Y-119089123D02*
X122773006Y-119184361D01*
X122773006Y-119184361D02*
X122677768Y-119279600D01*
X122677768Y-119279600D02*
X122534911Y-119327219D01*
X122534911Y-119327219D02*
X122296816Y-119327219D01*
X124630149Y-119231980D02*
X124582530Y-119279600D01*
X124582530Y-119279600D02*
X124439673Y-119327219D01*
X124439673Y-119327219D02*
X124344435Y-119327219D01*
X124344435Y-119327219D02*
X124201578Y-119279600D01*
X124201578Y-119279600D02*
X124106340Y-119184361D01*
X124106340Y-119184361D02*
X124058721Y-119089123D01*
X124058721Y-119089123D02*
X124011102Y-118898647D01*
X124011102Y-118898647D02*
X124011102Y-118755790D01*
X124011102Y-118755790D02*
X124058721Y-118565314D01*
X124058721Y-118565314D02*
X124106340Y-118470076D01*
X124106340Y-118470076D02*
X124201578Y-118374838D01*
X124201578Y-118374838D02*
X124344435Y-118327219D01*
X124344435Y-118327219D02*
X124439673Y-118327219D01*
X124439673Y-118327219D02*
X124582530Y-118374838D01*
X124582530Y-118374838D02*
X124630149Y-118422457D01*
X125201578Y-119327219D02*
X125106340Y-119279600D01*
X125106340Y-119279600D02*
X125058721Y-119231980D01*
X125058721Y-119231980D02*
X125011102Y-119136742D01*
X125011102Y-119136742D02*
X125011102Y-118851028D01*
X125011102Y-118851028D02*
X125058721Y-118755790D01*
X125058721Y-118755790D02*
X125106340Y-118708171D01*
X125106340Y-118708171D02*
X125201578Y-118660552D01*
X125201578Y-118660552D02*
X125344435Y-118660552D01*
X125344435Y-118660552D02*
X125439673Y-118708171D01*
X125439673Y-118708171D02*
X125487292Y-118755790D01*
X125487292Y-118755790D02*
X125534911Y-118851028D01*
X125534911Y-118851028D02*
X125534911Y-119136742D01*
X125534911Y-119136742D02*
X125487292Y-119231980D01*
X125487292Y-119231980D02*
X125439673Y-119279600D01*
X125439673Y-119279600D02*
X125344435Y-119327219D01*
X125344435Y-119327219D02*
X125201578Y-119327219D01*
X125963483Y-118660552D02*
X125963483Y-119327219D01*
X125963483Y-118755790D02*
X126011102Y-118708171D01*
X126011102Y-118708171D02*
X126106340Y-118660552D01*
X126106340Y-118660552D02*
X126249197Y-118660552D01*
X126249197Y-118660552D02*
X126344435Y-118708171D01*
X126344435Y-118708171D02*
X126392054Y-118803409D01*
X126392054Y-118803409D02*
X126392054Y-119327219D01*
X126725388Y-118660552D02*
X127106340Y-118660552D01*
X126868245Y-118327219D02*
X126868245Y-119184361D01*
X126868245Y-119184361D02*
X126915864Y-119279600D01*
X126915864Y-119279600D02*
X127011102Y-119327219D01*
X127011102Y-119327219D02*
X127106340Y-119327219D01*
X127439674Y-119327219D02*
X127439674Y-118660552D01*
X127439674Y-118851028D02*
X127487293Y-118755790D01*
X127487293Y-118755790D02*
X127534912Y-118708171D01*
X127534912Y-118708171D02*
X127630150Y-118660552D01*
X127630150Y-118660552D02*
X127725388Y-118660552D01*
X128201579Y-119327219D02*
X128106341Y-119279600D01*
X128106341Y-119279600D02*
X128058722Y-119231980D01*
X128058722Y-119231980D02*
X128011103Y-119136742D01*
X128011103Y-119136742D02*
X128011103Y-118851028D01*
X128011103Y-118851028D02*
X128058722Y-118755790D01*
X128058722Y-118755790D02*
X128106341Y-118708171D01*
X128106341Y-118708171D02*
X128201579Y-118660552D01*
X128201579Y-118660552D02*
X128344436Y-118660552D01*
X128344436Y-118660552D02*
X128439674Y-118708171D01*
X128439674Y-118708171D02*
X128487293Y-118755790D01*
X128487293Y-118755790D02*
X128534912Y-118851028D01*
X128534912Y-118851028D02*
X128534912Y-119136742D01*
X128534912Y-119136742D02*
X128487293Y-119231980D01*
X128487293Y-119231980D02*
X128439674Y-119279600D01*
X128439674Y-119279600D02*
X128344436Y-119327219D01*
X128344436Y-119327219D02*
X128201579Y-119327219D01*
X129106341Y-119327219D02*
X129011103Y-119279600D01*
X129011103Y-119279600D02*
X128963484Y-119184361D01*
X128963484Y-119184361D02*
X128963484Y-118327219D01*
X129630151Y-119327219D02*
X129534913Y-119279600D01*
X129534913Y-119279600D02*
X129487294Y-119184361D01*
X129487294Y-119184361D02*
X129487294Y-118327219D01*
X130392056Y-119279600D02*
X130296818Y-119327219D01*
X130296818Y-119327219D02*
X130106342Y-119327219D01*
X130106342Y-119327219D02*
X130011104Y-119279600D01*
X130011104Y-119279600D02*
X129963485Y-119184361D01*
X129963485Y-119184361D02*
X129963485Y-118803409D01*
X129963485Y-118803409D02*
X130011104Y-118708171D01*
X130011104Y-118708171D02*
X130106342Y-118660552D01*
X130106342Y-118660552D02*
X130296818Y-118660552D01*
X130296818Y-118660552D02*
X130392056Y-118708171D01*
X130392056Y-118708171D02*
X130439675Y-118803409D01*
X130439675Y-118803409D02*
X130439675Y-118898647D01*
X130439675Y-118898647D02*
X129963485Y-118993885D01*
X130868247Y-119327219D02*
X130868247Y-118660552D01*
X130868247Y-118851028D02*
X130915866Y-118755790D01*
X130915866Y-118755790D02*
X130963485Y-118708171D01*
X130963485Y-118708171D02*
X131058723Y-118660552D01*
X131058723Y-118660552D02*
X131153961Y-118660552D01*
X168373482Y-98764838D02*
X168278244Y-98717219D01*
X168278244Y-98717219D02*
X168135387Y-98717219D01*
X168135387Y-98717219D02*
X167992530Y-98764838D01*
X167992530Y-98764838D02*
X167897292Y-98860076D01*
X167897292Y-98860076D02*
X167849673Y-98955314D01*
X167849673Y-98955314D02*
X167802054Y-99145790D01*
X167802054Y-99145790D02*
X167802054Y-99288647D01*
X167802054Y-99288647D02*
X167849673Y-99479123D01*
X167849673Y-99479123D02*
X167897292Y-99574361D01*
X167897292Y-99574361D02*
X167992530Y-99669600D01*
X167992530Y-99669600D02*
X168135387Y-99717219D01*
X168135387Y-99717219D02*
X168230625Y-99717219D01*
X168230625Y-99717219D02*
X168373482Y-99669600D01*
X168373482Y-99669600D02*
X168421101Y-99621980D01*
X168421101Y-99621980D02*
X168421101Y-99288647D01*
X168421101Y-99288647D02*
X168230625Y-99288647D01*
X168849673Y-99717219D02*
X168849673Y-98717219D01*
X168849673Y-98717219D02*
X169421101Y-99717219D01*
X169421101Y-99717219D02*
X169421101Y-98717219D01*
X169897292Y-99717219D02*
X169897292Y-98717219D01*
X169897292Y-98717219D02*
X170135387Y-98717219D01*
X170135387Y-98717219D02*
X170278244Y-98764838D01*
X170278244Y-98764838D02*
X170373482Y-98860076D01*
X170373482Y-98860076D02*
X170421101Y-98955314D01*
X170421101Y-98955314D02*
X170468720Y-99145790D01*
X170468720Y-99145790D02*
X170468720Y-99288647D01*
X170468720Y-99288647D02*
X170421101Y-99479123D01*
X170421101Y-99479123D02*
X170373482Y-99574361D01*
X170373482Y-99574361D02*
X170278244Y-99669600D01*
X170278244Y-99669600D02*
X170135387Y-99717219D01*
X170135387Y-99717219D02*
X169897292Y-99717219D01*
X160806816Y-105087219D02*
X161378244Y-105087219D01*
X161092530Y-106087219D02*
X161092530Y-105087219D01*
X161616340Y-105087219D02*
X162283006Y-106087219D01*
X162283006Y-105087219D02*
X161616340Y-106087219D01*
X137370326Y-55382780D02*
X137370326Y-56382780D01*
X137370326Y-56382780D02*
X136798898Y-55382780D01*
X136798898Y-55382780D02*
X136798898Y-56382780D01*
X136132231Y-56382780D02*
X135941755Y-56382780D01*
X135941755Y-56382780D02*
X135846517Y-56335161D01*
X135846517Y-56335161D02*
X135751279Y-56239923D01*
X135751279Y-56239923D02*
X135703660Y-56049447D01*
X135703660Y-56049447D02*
X135703660Y-55716114D01*
X135703660Y-55716114D02*
X135751279Y-55525638D01*
X135751279Y-55525638D02*
X135846517Y-55430400D01*
X135846517Y-55430400D02*
X135941755Y-55382780D01*
X135941755Y-55382780D02*
X136132231Y-55382780D01*
X136132231Y-55382780D02*
X136227469Y-55430400D01*
X136227469Y-55430400D02*
X136322707Y-55525638D01*
X136322707Y-55525638D02*
X136370326Y-55716114D01*
X136370326Y-55716114D02*
X136370326Y-56049447D01*
X136370326Y-56049447D02*
X136322707Y-56239923D01*
X136322707Y-56239923D02*
X136227469Y-56335161D01*
X136227469Y-56335161D02*
X136132231Y-56382780D01*
X111808495Y-84002054D02*
X111808495Y-84478244D01*
X111522780Y-83906816D02*
X112522780Y-84240149D01*
X112522780Y-84240149D02*
X111522780Y-84573482D01*
X111522780Y-84906816D02*
X112522780Y-84906816D01*
X112522780Y-84906816D02*
X112522780Y-85144911D01*
X112522780Y-85144911D02*
X112475161Y-85287768D01*
X112475161Y-85287768D02*
X112379923Y-85383006D01*
X112379923Y-85383006D02*
X112284685Y-85430625D01*
X112284685Y-85430625D02*
X112094209Y-85478244D01*
X112094209Y-85478244D02*
X111951352Y-85478244D01*
X111951352Y-85478244D02*
X111760876Y-85430625D01*
X111760876Y-85430625D02*
X111665638Y-85383006D01*
X111665638Y-85383006D02*
X111570400Y-85287768D01*
X111570400Y-85287768D02*
X111522780Y-85144911D01*
X111522780Y-85144911D02*
X111522780Y-84906816D01*
X111618019Y-86478244D02*
X111570400Y-86430625D01*
X111570400Y-86430625D02*
X111522780Y-86287768D01*
X111522780Y-86287768D02*
X111522780Y-86192530D01*
X111522780Y-86192530D02*
X111570400Y-86049673D01*
X111570400Y-86049673D02*
X111665638Y-85954435D01*
X111665638Y-85954435D02*
X111760876Y-85906816D01*
X111760876Y-85906816D02*
X111951352Y-85859197D01*
X111951352Y-85859197D02*
X112094209Y-85859197D01*
X112094209Y-85859197D02*
X112284685Y-85906816D01*
X112284685Y-85906816D02*
X112379923Y-85954435D01*
X112379923Y-85954435D02*
X112475161Y-86049673D01*
X112475161Y-86049673D02*
X112522780Y-86192530D01*
X112522780Y-86192530D02*
X112522780Y-86287768D01*
X112522780Y-86287768D02*
X112475161Y-86430625D01*
X112475161Y-86430625D02*
X112427542Y-86478244D01*
X161330326Y-55593733D02*
X160568422Y-55593733D01*
X160949374Y-55212780D02*
X160949374Y-55974685D01*
X159616041Y-56212780D02*
X160092231Y-56212780D01*
X160092231Y-56212780D02*
X160139850Y-55736590D01*
X160139850Y-55736590D02*
X160092231Y-55784209D01*
X160092231Y-55784209D02*
X159996993Y-55831828D01*
X159996993Y-55831828D02*
X159758898Y-55831828D01*
X159758898Y-55831828D02*
X159663660Y-55784209D01*
X159663660Y-55784209D02*
X159616041Y-55736590D01*
X159616041Y-55736590D02*
X159568422Y-55641352D01*
X159568422Y-55641352D02*
X159568422Y-55403257D01*
X159568422Y-55403257D02*
X159616041Y-55308019D01*
X159616041Y-55308019D02*
X159663660Y-55260400D01*
X159663660Y-55260400D02*
X159758898Y-55212780D01*
X159758898Y-55212780D02*
X159996993Y-55212780D01*
X159996993Y-55212780D02*
X160092231Y-55260400D01*
X160092231Y-55260400D02*
X160139850Y-55308019D01*
X159282707Y-56212780D02*
X158949374Y-55212780D01*
X158949374Y-55212780D02*
X158616041Y-56212780D01*
X126043409Y-116066993D02*
X126043409Y-116400326D01*
X126567219Y-116400326D02*
X125567219Y-116400326D01*
X125567219Y-116400326D02*
X125567219Y-115924136D01*
X126567219Y-115400326D02*
X126519600Y-115495564D01*
X126519600Y-115495564D02*
X126424361Y-115543183D01*
X126424361Y-115543183D02*
X125567219Y-115543183D01*
X126567219Y-114590802D02*
X126043409Y-114590802D01*
X126043409Y-114590802D02*
X125948171Y-114638421D01*
X125948171Y-114638421D02*
X125900552Y-114733659D01*
X125900552Y-114733659D02*
X125900552Y-114924135D01*
X125900552Y-114924135D02*
X125948171Y-115019373D01*
X126519600Y-114590802D02*
X126567219Y-114686040D01*
X126567219Y-114686040D02*
X126567219Y-114924135D01*
X126567219Y-114924135D02*
X126519600Y-115019373D01*
X126519600Y-115019373D02*
X126424361Y-115066992D01*
X126424361Y-115066992D02*
X126329123Y-115066992D01*
X126329123Y-115066992D02*
X126233885Y-115019373D01*
X126233885Y-115019373D02*
X126186266Y-114924135D01*
X126186266Y-114924135D02*
X126186266Y-114686040D01*
X126186266Y-114686040D02*
X126138647Y-114590802D01*
X126519600Y-114162230D02*
X126567219Y-114066992D01*
X126567219Y-114066992D02*
X126567219Y-113876516D01*
X126567219Y-113876516D02*
X126519600Y-113781278D01*
X126519600Y-113781278D02*
X126424361Y-113733659D01*
X126424361Y-113733659D02*
X126376742Y-113733659D01*
X126376742Y-113733659D02*
X126281504Y-113781278D01*
X126281504Y-113781278D02*
X126233885Y-113876516D01*
X126233885Y-113876516D02*
X126233885Y-114019373D01*
X126233885Y-114019373D02*
X126186266Y-114114611D01*
X126186266Y-114114611D02*
X126091028Y-114162230D01*
X126091028Y-114162230D02*
X126043409Y-114162230D01*
X126043409Y-114162230D02*
X125948171Y-114114611D01*
X125948171Y-114114611D02*
X125900552Y-114019373D01*
X125900552Y-114019373D02*
X125900552Y-113876516D01*
X125900552Y-113876516D02*
X125948171Y-113781278D01*
X126567219Y-113305087D02*
X125567219Y-113305087D01*
X126567219Y-112876516D02*
X126043409Y-112876516D01*
X126043409Y-112876516D02*
X125948171Y-112924135D01*
X125948171Y-112924135D02*
X125900552Y-113019373D01*
X125900552Y-113019373D02*
X125900552Y-113162230D01*
X125900552Y-113162230D02*
X125948171Y-113257468D01*
X125948171Y-113257468D02*
X125995790Y-113305087D01*
X126043409Y-112066992D02*
X126091028Y-111924135D01*
X126091028Y-111924135D02*
X126138647Y-111876516D01*
X126138647Y-111876516D02*
X126233885Y-111828897D01*
X126233885Y-111828897D02*
X126376742Y-111828897D01*
X126376742Y-111828897D02*
X126471980Y-111876516D01*
X126471980Y-111876516D02*
X126519600Y-111924135D01*
X126519600Y-111924135D02*
X126567219Y-112019373D01*
X126567219Y-112019373D02*
X126567219Y-112400325D01*
X126567219Y-112400325D02*
X125567219Y-112400325D01*
X125567219Y-112400325D02*
X125567219Y-112066992D01*
X125567219Y-112066992D02*
X125614838Y-111971754D01*
X125614838Y-111971754D02*
X125662457Y-111924135D01*
X125662457Y-111924135D02*
X125757695Y-111876516D01*
X125757695Y-111876516D02*
X125852933Y-111876516D01*
X125852933Y-111876516D02*
X125948171Y-111924135D01*
X125948171Y-111924135D02*
X125995790Y-111971754D01*
X125995790Y-111971754D02*
X126043409Y-112066992D01*
X126043409Y-112066992D02*
X126043409Y-112400325D01*
X125900552Y-111543182D02*
X125900552Y-111162230D01*
X125567219Y-111400325D02*
X126424361Y-111400325D01*
X126424361Y-111400325D02*
X126519600Y-111352706D01*
X126519600Y-111352706D02*
X126567219Y-111257468D01*
X126567219Y-111257468D02*
X126567219Y-111162230D01*
X125900552Y-110828896D02*
X126567219Y-110828896D01*
X125995790Y-110828896D02*
X125948171Y-110781277D01*
X125948171Y-110781277D02*
X125900552Y-110686039D01*
X125900552Y-110686039D02*
X125900552Y-110543182D01*
X125900552Y-110543182D02*
X125948171Y-110447944D01*
X125948171Y-110447944D02*
X126043409Y-110400325D01*
X126043409Y-110400325D02*
X126567219Y-110400325D01*
X111402780Y-98309673D02*
X112402780Y-98309673D01*
X112402780Y-98976339D02*
X112402780Y-99166815D01*
X112402780Y-99166815D02*
X112355161Y-99262053D01*
X112355161Y-99262053D02*
X112259923Y-99357291D01*
X112259923Y-99357291D02*
X112069447Y-99404910D01*
X112069447Y-99404910D02*
X111736114Y-99404910D01*
X111736114Y-99404910D02*
X111545638Y-99357291D01*
X111545638Y-99357291D02*
X111450400Y-99262053D01*
X111450400Y-99262053D02*
X111402780Y-99166815D01*
X111402780Y-99166815D02*
X111402780Y-98976339D01*
X111402780Y-98976339D02*
X111450400Y-98881101D01*
X111450400Y-98881101D02*
X111545638Y-98785863D01*
X111545638Y-98785863D02*
X111736114Y-98738244D01*
X111736114Y-98738244D02*
X112069447Y-98738244D01*
X112069447Y-98738244D02*
X112259923Y-98785863D01*
X112259923Y-98785863D02*
X112355161Y-98881101D01*
X112355161Y-98881101D02*
X112402780Y-98976339D01*
X111783733Y-99833482D02*
X111783733Y-100595387D01*
X111402780Y-101595386D02*
X111402780Y-101023958D01*
X111402780Y-101309672D02*
X112402780Y-101309672D01*
X112402780Y-101309672D02*
X112259923Y-101214434D01*
X112259923Y-101214434D02*
X112164685Y-101119196D01*
X112164685Y-101119196D02*
X112117066Y-101023958D01*
X112069447Y-102452529D02*
X111402780Y-102452529D01*
X112450400Y-102214434D02*
X111736114Y-101976339D01*
X111736114Y-101976339D02*
X111736114Y-102595386D01*
X161281101Y-102527219D02*
X160947768Y-102051028D01*
X160709673Y-102527219D02*
X160709673Y-101527219D01*
X160709673Y-101527219D02*
X161090625Y-101527219D01*
X161090625Y-101527219D02*
X161185863Y-101574838D01*
X161185863Y-101574838D02*
X161233482Y-101622457D01*
X161233482Y-101622457D02*
X161281101Y-101717695D01*
X161281101Y-101717695D02*
X161281101Y-101860552D01*
X161281101Y-101860552D02*
X161233482Y-101955790D01*
X161233482Y-101955790D02*
X161185863Y-102003409D01*
X161185863Y-102003409D02*
X161090625Y-102051028D01*
X161090625Y-102051028D02*
X160709673Y-102051028D01*
X161614435Y-101527219D02*
X162281101Y-102527219D01*
X162281101Y-101527219D02*
X161614435Y-102527219D01*
X167862054Y-75509600D02*
X168004911Y-75557219D01*
X168004911Y-75557219D02*
X168243006Y-75557219D01*
X168243006Y-75557219D02*
X168338244Y-75509600D01*
X168338244Y-75509600D02*
X168385863Y-75461980D01*
X168385863Y-75461980D02*
X168433482Y-75366742D01*
X168433482Y-75366742D02*
X168433482Y-75271504D01*
X168433482Y-75271504D02*
X168385863Y-75176266D01*
X168385863Y-75176266D02*
X168338244Y-75128647D01*
X168338244Y-75128647D02*
X168243006Y-75081028D01*
X168243006Y-75081028D02*
X168052530Y-75033409D01*
X168052530Y-75033409D02*
X167957292Y-74985790D01*
X167957292Y-74985790D02*
X167909673Y-74938171D01*
X167909673Y-74938171D02*
X167862054Y-74842933D01*
X167862054Y-74842933D02*
X167862054Y-74747695D01*
X167862054Y-74747695D02*
X167909673Y-74652457D01*
X167909673Y-74652457D02*
X167957292Y-74604838D01*
X167957292Y-74604838D02*
X168052530Y-74557219D01*
X168052530Y-74557219D02*
X168290625Y-74557219D01*
X168290625Y-74557219D02*
X168433482Y-74604838D01*
X169433482Y-75461980D02*
X169385863Y-75509600D01*
X169385863Y-75509600D02*
X169243006Y-75557219D01*
X169243006Y-75557219D02*
X169147768Y-75557219D01*
X169147768Y-75557219D02*
X169004911Y-75509600D01*
X169004911Y-75509600D02*
X168909673Y-75414361D01*
X168909673Y-75414361D02*
X168862054Y-75319123D01*
X168862054Y-75319123D02*
X168814435Y-75128647D01*
X168814435Y-75128647D02*
X168814435Y-74985790D01*
X168814435Y-74985790D02*
X168862054Y-74795314D01*
X168862054Y-74795314D02*
X168909673Y-74700076D01*
X168909673Y-74700076D02*
X169004911Y-74604838D01*
X169004911Y-74604838D02*
X169147768Y-74557219D01*
X169147768Y-74557219D02*
X169243006Y-74557219D01*
X169243006Y-74557219D02*
X169385863Y-74604838D01*
X169385863Y-74604838D02*
X169433482Y-74652457D01*
X170338244Y-75557219D02*
X169862054Y-75557219D01*
X169862054Y-75557219D02*
X169862054Y-74557219D01*
X167806816Y-106357219D02*
X168378244Y-106357219D01*
X168092530Y-107357219D02*
X168092530Y-106357219D01*
X168616340Y-106357219D02*
X169283006Y-107357219D01*
X169283006Y-106357219D02*
X168616340Y-107357219D01*
X169663959Y-107357219D02*
X169663959Y-106357219D01*
X169663959Y-106357219D02*
X169902054Y-106357219D01*
X169902054Y-106357219D02*
X170044911Y-106404838D01*
X170044911Y-106404838D02*
X170140149Y-106500076D01*
X170140149Y-106500076D02*
X170187768Y-106595314D01*
X170187768Y-106595314D02*
X170235387Y-106785790D01*
X170235387Y-106785790D02*
X170235387Y-106928647D01*
X170235387Y-106928647D02*
X170187768Y-107119123D01*
X170187768Y-107119123D02*
X170140149Y-107214361D01*
X170140149Y-107214361D02*
X170044911Y-107309600D01*
X170044911Y-107309600D02*
X169902054Y-107357219D01*
X169902054Y-107357219D02*
X169663959Y-107357219D01*
X149810326Y-55633733D02*
X149048422Y-55633733D01*
X149429374Y-55252780D02*
X149429374Y-56014685D01*
X148096041Y-56252780D02*
X148572231Y-56252780D01*
X148572231Y-56252780D02*
X148619850Y-55776590D01*
X148619850Y-55776590D02*
X148572231Y-55824209D01*
X148572231Y-55824209D02*
X148476993Y-55871828D01*
X148476993Y-55871828D02*
X148238898Y-55871828D01*
X148238898Y-55871828D02*
X148143660Y-55824209D01*
X148143660Y-55824209D02*
X148096041Y-55776590D01*
X148096041Y-55776590D02*
X148048422Y-55681352D01*
X148048422Y-55681352D02*
X148048422Y-55443257D01*
X148048422Y-55443257D02*
X148096041Y-55348019D01*
X148096041Y-55348019D02*
X148143660Y-55300400D01*
X148143660Y-55300400D02*
X148238898Y-55252780D01*
X148238898Y-55252780D02*
X148476993Y-55252780D01*
X148476993Y-55252780D02*
X148572231Y-55300400D01*
X148572231Y-55300400D02*
X148619850Y-55348019D01*
X147762707Y-56252780D02*
X147429374Y-55252780D01*
X147429374Y-55252780D02*
X147096041Y-56252780D01*
X168413482Y-69574838D02*
X168318244Y-69527219D01*
X168318244Y-69527219D02*
X168175387Y-69527219D01*
X168175387Y-69527219D02*
X168032530Y-69574838D01*
X168032530Y-69574838D02*
X167937292Y-69670076D01*
X167937292Y-69670076D02*
X167889673Y-69765314D01*
X167889673Y-69765314D02*
X167842054Y-69955790D01*
X167842054Y-69955790D02*
X167842054Y-70098647D01*
X167842054Y-70098647D02*
X167889673Y-70289123D01*
X167889673Y-70289123D02*
X167937292Y-70384361D01*
X167937292Y-70384361D02*
X168032530Y-70479600D01*
X168032530Y-70479600D02*
X168175387Y-70527219D01*
X168175387Y-70527219D02*
X168270625Y-70527219D01*
X168270625Y-70527219D02*
X168413482Y-70479600D01*
X168413482Y-70479600D02*
X168461101Y-70431980D01*
X168461101Y-70431980D02*
X168461101Y-70098647D01*
X168461101Y-70098647D02*
X168270625Y-70098647D01*
X168889673Y-70527219D02*
X168889673Y-69527219D01*
X168889673Y-69527219D02*
X169461101Y-70527219D01*
X169461101Y-70527219D02*
X169461101Y-69527219D01*
X169937292Y-70527219D02*
X169937292Y-69527219D01*
X169937292Y-69527219D02*
X170175387Y-69527219D01*
X170175387Y-69527219D02*
X170318244Y-69574838D01*
X170318244Y-69574838D02*
X170413482Y-69670076D01*
X170413482Y-69670076D02*
X170461101Y-69765314D01*
X170461101Y-69765314D02*
X170508720Y-69955790D01*
X170508720Y-69955790D02*
X170508720Y-70098647D01*
X170508720Y-70098647D02*
X170461101Y-70289123D01*
X170461101Y-70289123D02*
X170413482Y-70384361D01*
X170413482Y-70384361D02*
X170318244Y-70479600D01*
X170318244Y-70479600D02*
X170175387Y-70527219D01*
X170175387Y-70527219D02*
X169937292Y-70527219D01*
X111592780Y-62929673D02*
X112592780Y-62929673D01*
X112592780Y-62929673D02*
X111878495Y-63263006D01*
X111878495Y-63263006D02*
X112592780Y-63596339D01*
X112592780Y-63596339D02*
X111592780Y-63596339D01*
X112592780Y-64263006D02*
X112592780Y-64453482D01*
X112592780Y-64453482D02*
X112545161Y-64548720D01*
X112545161Y-64548720D02*
X112449923Y-64643958D01*
X112449923Y-64643958D02*
X112259447Y-64691577D01*
X112259447Y-64691577D02*
X111926114Y-64691577D01*
X111926114Y-64691577D02*
X111735638Y-64643958D01*
X111735638Y-64643958D02*
X111640400Y-64548720D01*
X111640400Y-64548720D02*
X111592780Y-64453482D01*
X111592780Y-64453482D02*
X111592780Y-64263006D01*
X111592780Y-64263006D02*
X111640400Y-64167768D01*
X111640400Y-64167768D02*
X111735638Y-64072530D01*
X111735638Y-64072530D02*
X111926114Y-64024911D01*
X111926114Y-64024911D02*
X112259447Y-64024911D01*
X112259447Y-64024911D02*
X112449923Y-64072530D01*
X112449923Y-64072530D02*
X112545161Y-64167768D01*
X112545161Y-64167768D02*
X112592780Y-64263006D01*
X111640400Y-65072530D02*
X111592780Y-65215387D01*
X111592780Y-65215387D02*
X111592780Y-65453482D01*
X111592780Y-65453482D02*
X111640400Y-65548720D01*
X111640400Y-65548720D02*
X111688019Y-65596339D01*
X111688019Y-65596339D02*
X111783257Y-65643958D01*
X111783257Y-65643958D02*
X111878495Y-65643958D01*
X111878495Y-65643958D02*
X111973733Y-65596339D01*
X111973733Y-65596339D02*
X112021352Y-65548720D01*
X112021352Y-65548720D02*
X112068971Y-65453482D01*
X112068971Y-65453482D02*
X112116590Y-65263006D01*
X112116590Y-65263006D02*
X112164209Y-65167768D01*
X112164209Y-65167768D02*
X112211828Y-65120149D01*
X112211828Y-65120149D02*
X112307066Y-65072530D01*
X112307066Y-65072530D02*
X112402304Y-65072530D01*
X112402304Y-65072530D02*
X112497542Y-65120149D01*
X112497542Y-65120149D02*
X112545161Y-65167768D01*
X112545161Y-65167768D02*
X112592780Y-65263006D01*
X112592780Y-65263006D02*
X112592780Y-65501101D01*
X112592780Y-65501101D02*
X112545161Y-65643958D01*
X111592780Y-66072530D02*
X112592780Y-66072530D01*
X143138898Y-55408019D02*
X143186517Y-55360400D01*
X143186517Y-55360400D02*
X143329374Y-55312780D01*
X143329374Y-55312780D02*
X143424612Y-55312780D01*
X143424612Y-55312780D02*
X143567469Y-55360400D01*
X143567469Y-55360400D02*
X143662707Y-55455638D01*
X143662707Y-55455638D02*
X143710326Y-55550876D01*
X143710326Y-55550876D02*
X143757945Y-55741352D01*
X143757945Y-55741352D02*
X143757945Y-55884209D01*
X143757945Y-55884209D02*
X143710326Y-56074685D01*
X143710326Y-56074685D02*
X143662707Y-56169923D01*
X143662707Y-56169923D02*
X143567469Y-56265161D01*
X143567469Y-56265161D02*
X143424612Y-56312780D01*
X143424612Y-56312780D02*
X143329374Y-56312780D01*
X143329374Y-56312780D02*
X143186517Y-56265161D01*
X143186517Y-56265161D02*
X143138898Y-56217542D01*
X168381101Y-104767219D02*
X168047768Y-104291028D01*
X167809673Y-104767219D02*
X167809673Y-103767219D01*
X167809673Y-103767219D02*
X168190625Y-103767219D01*
X168190625Y-103767219D02*
X168285863Y-103814838D01*
X168285863Y-103814838D02*
X168333482Y-103862457D01*
X168333482Y-103862457D02*
X168381101Y-103957695D01*
X168381101Y-103957695D02*
X168381101Y-104100552D01*
X168381101Y-104100552D02*
X168333482Y-104195790D01*
X168333482Y-104195790D02*
X168285863Y-104243409D01*
X168285863Y-104243409D02*
X168190625Y-104291028D01*
X168190625Y-104291028D02*
X167809673Y-104291028D01*
X168714435Y-103767219D02*
X169381101Y-104767219D01*
X169381101Y-103767219D02*
X168714435Y-104767219D01*
X169762054Y-104767219D02*
X169762054Y-103767219D01*
X169762054Y-103767219D02*
X170000149Y-103767219D01*
X170000149Y-103767219D02*
X170143006Y-103814838D01*
X170143006Y-103814838D02*
X170238244Y-103910076D01*
X170238244Y-103910076D02*
X170285863Y-104005314D01*
X170285863Y-104005314D02*
X170333482Y-104195790D01*
X170333482Y-104195790D02*
X170333482Y-104338647D01*
X170333482Y-104338647D02*
X170285863Y-104529123D01*
X170285863Y-104529123D02*
X170238244Y-104624361D01*
X170238244Y-104624361D02*
X170143006Y-104719600D01*
X170143006Y-104719600D02*
X170000149Y-104767219D01*
X170000149Y-104767219D02*
X169762054Y-104767219D01*
X111412780Y-87899673D02*
X112412780Y-87899673D01*
X112412780Y-88566339D02*
X112412780Y-88756815D01*
X112412780Y-88756815D02*
X112365161Y-88852053D01*
X112365161Y-88852053D02*
X112269923Y-88947291D01*
X112269923Y-88947291D02*
X112079447Y-88994910D01*
X112079447Y-88994910D02*
X111746114Y-88994910D01*
X111746114Y-88994910D02*
X111555638Y-88947291D01*
X111555638Y-88947291D02*
X111460400Y-88852053D01*
X111460400Y-88852053D02*
X111412780Y-88756815D01*
X111412780Y-88756815D02*
X111412780Y-88566339D01*
X111412780Y-88566339D02*
X111460400Y-88471101D01*
X111460400Y-88471101D02*
X111555638Y-88375863D01*
X111555638Y-88375863D02*
X111746114Y-88328244D01*
X111746114Y-88328244D02*
X112079447Y-88328244D01*
X112079447Y-88328244D02*
X112269923Y-88375863D01*
X112269923Y-88375863D02*
X112365161Y-88471101D01*
X112365161Y-88471101D02*
X112412780Y-88566339D01*
X111793733Y-89423482D02*
X111793733Y-90185387D01*
X111412780Y-91185386D02*
X111412780Y-90613958D01*
X111412780Y-90899672D02*
X112412780Y-90899672D01*
X112412780Y-90899672D02*
X112269923Y-90804434D01*
X112269923Y-90804434D02*
X112174685Y-90709196D01*
X112174685Y-90709196D02*
X112127066Y-90613958D01*
X112317542Y-91566339D02*
X112365161Y-91613958D01*
X112365161Y-91613958D02*
X112412780Y-91709196D01*
X112412780Y-91709196D02*
X112412780Y-91947291D01*
X112412780Y-91947291D02*
X112365161Y-92042529D01*
X112365161Y-92042529D02*
X112317542Y-92090148D01*
X112317542Y-92090148D02*
X112222304Y-92137767D01*
X112222304Y-92137767D02*
X112127066Y-92137767D01*
X112127066Y-92137767D02*
X111984209Y-92090148D01*
X111984209Y-92090148D02*
X111412780Y-91518720D01*
X111412780Y-91518720D02*
X111412780Y-92137767D01*
X167984435Y-101107219D02*
X168603482Y-101107219D01*
X168603482Y-101107219D02*
X168270149Y-101488171D01*
X168270149Y-101488171D02*
X168413006Y-101488171D01*
X168413006Y-101488171D02*
X168508244Y-101535790D01*
X168508244Y-101535790D02*
X168555863Y-101583409D01*
X168555863Y-101583409D02*
X168603482Y-101678647D01*
X168603482Y-101678647D02*
X168603482Y-101916742D01*
X168603482Y-101916742D02*
X168555863Y-102011980D01*
X168555863Y-102011980D02*
X168508244Y-102059600D01*
X168508244Y-102059600D02*
X168413006Y-102107219D01*
X168413006Y-102107219D02*
X168127292Y-102107219D01*
X168127292Y-102107219D02*
X168032054Y-102059600D01*
X168032054Y-102059600D02*
X167984435Y-102011980D01*
X169032054Y-102011980D02*
X169079673Y-102059600D01*
X169079673Y-102059600D02*
X169032054Y-102107219D01*
X169032054Y-102107219D02*
X168984435Y-102059600D01*
X168984435Y-102059600D02*
X169032054Y-102011980D01*
X169032054Y-102011980D02*
X169032054Y-102107219D01*
X169413006Y-101107219D02*
X170032053Y-101107219D01*
X170032053Y-101107219D02*
X169698720Y-101488171D01*
X169698720Y-101488171D02*
X169841577Y-101488171D01*
X169841577Y-101488171D02*
X169936815Y-101535790D01*
X169936815Y-101535790D02*
X169984434Y-101583409D01*
X169984434Y-101583409D02*
X170032053Y-101678647D01*
X170032053Y-101678647D02*
X170032053Y-101916742D01*
X170032053Y-101916742D02*
X169984434Y-102011980D01*
X169984434Y-102011980D02*
X169936815Y-102059600D01*
X169936815Y-102059600D02*
X169841577Y-102107219D01*
X169841577Y-102107219D02*
X169555863Y-102107219D01*
X169555863Y-102107219D02*
X169460625Y-102059600D01*
X169460625Y-102059600D02*
X169413006Y-102011980D01*
X170317768Y-101107219D02*
X170651101Y-102107219D01*
X170651101Y-102107219D02*
X170984434Y-101107219D01*
X167862054Y-78109600D02*
X168004911Y-78157219D01*
X168004911Y-78157219D02*
X168243006Y-78157219D01*
X168243006Y-78157219D02*
X168338244Y-78109600D01*
X168338244Y-78109600D02*
X168385863Y-78061980D01*
X168385863Y-78061980D02*
X168433482Y-77966742D01*
X168433482Y-77966742D02*
X168433482Y-77871504D01*
X168433482Y-77871504D02*
X168385863Y-77776266D01*
X168385863Y-77776266D02*
X168338244Y-77728647D01*
X168338244Y-77728647D02*
X168243006Y-77681028D01*
X168243006Y-77681028D02*
X168052530Y-77633409D01*
X168052530Y-77633409D02*
X167957292Y-77585790D01*
X167957292Y-77585790D02*
X167909673Y-77538171D01*
X167909673Y-77538171D02*
X167862054Y-77442933D01*
X167862054Y-77442933D02*
X167862054Y-77347695D01*
X167862054Y-77347695D02*
X167909673Y-77252457D01*
X167909673Y-77252457D02*
X167957292Y-77204838D01*
X167957292Y-77204838D02*
X168052530Y-77157219D01*
X168052530Y-77157219D02*
X168290625Y-77157219D01*
X168290625Y-77157219D02*
X168433482Y-77204838D01*
X168862054Y-78157219D02*
X168862054Y-77157219D01*
X168862054Y-77157219D02*
X169100149Y-77157219D01*
X169100149Y-77157219D02*
X169243006Y-77204838D01*
X169243006Y-77204838D02*
X169338244Y-77300076D01*
X169338244Y-77300076D02*
X169385863Y-77395314D01*
X169385863Y-77395314D02*
X169433482Y-77585790D01*
X169433482Y-77585790D02*
X169433482Y-77728647D01*
X169433482Y-77728647D02*
X169385863Y-77919123D01*
X169385863Y-77919123D02*
X169338244Y-78014361D01*
X169338244Y-78014361D02*
X169243006Y-78109600D01*
X169243006Y-78109600D02*
X169100149Y-78157219D01*
X169100149Y-78157219D02*
X168862054Y-78157219D01*
X169814435Y-77871504D02*
X170290625Y-77871504D01*
X169719197Y-78157219D02*
X170052530Y-77157219D01*
X170052530Y-77157219D02*
X170385863Y-78157219D01*
X155952780Y-111151101D02*
X156428971Y-110817768D01*
X155952780Y-110579673D02*
X156952780Y-110579673D01*
X156952780Y-110579673D02*
X156952780Y-110960625D01*
X156952780Y-110960625D02*
X156905161Y-111055863D01*
X156905161Y-111055863D02*
X156857542Y-111103482D01*
X156857542Y-111103482D02*
X156762304Y-111151101D01*
X156762304Y-111151101D02*
X156619447Y-111151101D01*
X156619447Y-111151101D02*
X156524209Y-111103482D01*
X156524209Y-111103482D02*
X156476590Y-111055863D01*
X156476590Y-111055863D02*
X156428971Y-110960625D01*
X156428971Y-110960625D02*
X156428971Y-110579673D01*
X156000400Y-111960625D02*
X155952780Y-111865387D01*
X155952780Y-111865387D02*
X155952780Y-111674911D01*
X155952780Y-111674911D02*
X156000400Y-111579673D01*
X156000400Y-111579673D02*
X156095638Y-111532054D01*
X156095638Y-111532054D02*
X156476590Y-111532054D01*
X156476590Y-111532054D02*
X156571828Y-111579673D01*
X156571828Y-111579673D02*
X156619447Y-111674911D01*
X156619447Y-111674911D02*
X156619447Y-111865387D01*
X156619447Y-111865387D02*
X156571828Y-111960625D01*
X156571828Y-111960625D02*
X156476590Y-112008244D01*
X156476590Y-112008244D02*
X156381352Y-112008244D01*
X156381352Y-112008244D02*
X156286114Y-111532054D01*
X156000400Y-112389197D02*
X155952780Y-112484435D01*
X155952780Y-112484435D02*
X155952780Y-112674911D01*
X155952780Y-112674911D02*
X156000400Y-112770149D01*
X156000400Y-112770149D02*
X156095638Y-112817768D01*
X156095638Y-112817768D02*
X156143257Y-112817768D01*
X156143257Y-112817768D02*
X156238495Y-112770149D01*
X156238495Y-112770149D02*
X156286114Y-112674911D01*
X156286114Y-112674911D02*
X156286114Y-112532054D01*
X156286114Y-112532054D02*
X156333733Y-112436816D01*
X156333733Y-112436816D02*
X156428971Y-112389197D01*
X156428971Y-112389197D02*
X156476590Y-112389197D01*
X156476590Y-112389197D02*
X156571828Y-112436816D01*
X156571828Y-112436816D02*
X156619447Y-112532054D01*
X156619447Y-112532054D02*
X156619447Y-112674911D01*
X156619447Y-112674911D02*
X156571828Y-112770149D01*
X156000400Y-113627292D02*
X155952780Y-113532054D01*
X155952780Y-113532054D02*
X155952780Y-113341578D01*
X155952780Y-113341578D02*
X156000400Y-113246340D01*
X156000400Y-113246340D02*
X156095638Y-113198721D01*
X156095638Y-113198721D02*
X156476590Y-113198721D01*
X156476590Y-113198721D02*
X156571828Y-113246340D01*
X156571828Y-113246340D02*
X156619447Y-113341578D01*
X156619447Y-113341578D02*
X156619447Y-113532054D01*
X156619447Y-113532054D02*
X156571828Y-113627292D01*
X156571828Y-113627292D02*
X156476590Y-113674911D01*
X156476590Y-113674911D02*
X156381352Y-113674911D01*
X156381352Y-113674911D02*
X156286114Y-113198721D01*
X156619447Y-113960626D02*
X156619447Y-114341578D01*
X156952780Y-114103483D02*
X156095638Y-114103483D01*
X156095638Y-114103483D02*
X156000400Y-114151102D01*
X156000400Y-114151102D02*
X155952780Y-114246340D01*
X155952780Y-114246340D02*
X155952780Y-114341578D01*
X156476590Y-115008245D02*
X156428971Y-115151102D01*
X156428971Y-115151102D02*
X156381352Y-115198721D01*
X156381352Y-115198721D02*
X156286114Y-115246340D01*
X156286114Y-115246340D02*
X156143257Y-115246340D01*
X156143257Y-115246340D02*
X156048019Y-115198721D01*
X156048019Y-115198721D02*
X156000400Y-115151102D01*
X156000400Y-115151102D02*
X155952780Y-115055864D01*
X155952780Y-115055864D02*
X155952780Y-114674912D01*
X155952780Y-114674912D02*
X156952780Y-114674912D01*
X156952780Y-114674912D02*
X156952780Y-115008245D01*
X156952780Y-115008245D02*
X156905161Y-115103483D01*
X156905161Y-115103483D02*
X156857542Y-115151102D01*
X156857542Y-115151102D02*
X156762304Y-115198721D01*
X156762304Y-115198721D02*
X156667066Y-115198721D01*
X156667066Y-115198721D02*
X156571828Y-115151102D01*
X156571828Y-115151102D02*
X156524209Y-115103483D01*
X156524209Y-115103483D02*
X156476590Y-115008245D01*
X156476590Y-115008245D02*
X156476590Y-114674912D01*
X156619447Y-115532055D02*
X156619447Y-115913007D01*
X156952780Y-115674912D02*
X156095638Y-115674912D01*
X156095638Y-115674912D02*
X156000400Y-115722531D01*
X156000400Y-115722531D02*
X155952780Y-115817769D01*
X155952780Y-115817769D02*
X155952780Y-115913007D01*
X156619447Y-116246341D02*
X155952780Y-116246341D01*
X156524209Y-116246341D02*
X156571828Y-116293960D01*
X156571828Y-116293960D02*
X156619447Y-116389198D01*
X156619447Y-116389198D02*
X156619447Y-116532055D01*
X156619447Y-116532055D02*
X156571828Y-116627293D01*
X156571828Y-116627293D02*
X156476590Y-116674912D01*
X156476590Y-116674912D02*
X155952780Y-116674912D01*
X111620400Y-73392054D02*
X111572780Y-73534911D01*
X111572780Y-73534911D02*
X111572780Y-73773006D01*
X111572780Y-73773006D02*
X111620400Y-73868244D01*
X111620400Y-73868244D02*
X111668019Y-73915863D01*
X111668019Y-73915863D02*
X111763257Y-73963482D01*
X111763257Y-73963482D02*
X111858495Y-73963482D01*
X111858495Y-73963482D02*
X111953733Y-73915863D01*
X111953733Y-73915863D02*
X112001352Y-73868244D01*
X112001352Y-73868244D02*
X112048971Y-73773006D01*
X112048971Y-73773006D02*
X112096590Y-73582530D01*
X112096590Y-73582530D02*
X112144209Y-73487292D01*
X112144209Y-73487292D02*
X112191828Y-73439673D01*
X112191828Y-73439673D02*
X112287066Y-73392054D01*
X112287066Y-73392054D02*
X112382304Y-73392054D01*
X112382304Y-73392054D02*
X112477542Y-73439673D01*
X112477542Y-73439673D02*
X112525161Y-73487292D01*
X112525161Y-73487292D02*
X112572780Y-73582530D01*
X112572780Y-73582530D02*
X112572780Y-73820625D01*
X112572780Y-73820625D02*
X112525161Y-73963482D01*
X111668019Y-74963482D02*
X111620400Y-74915863D01*
X111620400Y-74915863D02*
X111572780Y-74773006D01*
X111572780Y-74773006D02*
X111572780Y-74677768D01*
X111572780Y-74677768D02*
X111620400Y-74534911D01*
X111620400Y-74534911D02*
X111715638Y-74439673D01*
X111715638Y-74439673D02*
X111810876Y-74392054D01*
X111810876Y-74392054D02*
X112001352Y-74344435D01*
X112001352Y-74344435D02*
X112144209Y-74344435D01*
X112144209Y-74344435D02*
X112334685Y-74392054D01*
X112334685Y-74392054D02*
X112429923Y-74439673D01*
X112429923Y-74439673D02*
X112525161Y-74534911D01*
X112525161Y-74534911D02*
X112572780Y-74677768D01*
X112572780Y-74677768D02*
X112572780Y-74773006D01*
X112572780Y-74773006D02*
X112525161Y-74915863D01*
X112525161Y-74915863D02*
X112477542Y-74963482D01*
X111572780Y-75868244D02*
X111572780Y-75392054D01*
X111572780Y-75392054D02*
X112572780Y-75392054D01*
X111572780Y-76201578D02*
X112572780Y-76201578D01*
X111572780Y-76773006D02*
X112144209Y-76344435D01*
X112572780Y-76773006D02*
X112001352Y-76201578D01*
X111592780Y-68479673D02*
X112592780Y-68479673D01*
X112592780Y-68479673D02*
X111878495Y-68813006D01*
X111878495Y-68813006D02*
X112592780Y-69146339D01*
X112592780Y-69146339D02*
X111592780Y-69146339D01*
X111592780Y-69622530D02*
X112592780Y-69622530D01*
X111640400Y-70051101D02*
X111592780Y-70193958D01*
X111592780Y-70193958D02*
X111592780Y-70432053D01*
X111592780Y-70432053D02*
X111640400Y-70527291D01*
X111640400Y-70527291D02*
X111688019Y-70574910D01*
X111688019Y-70574910D02*
X111783257Y-70622529D01*
X111783257Y-70622529D02*
X111878495Y-70622529D01*
X111878495Y-70622529D02*
X111973733Y-70574910D01*
X111973733Y-70574910D02*
X112021352Y-70527291D01*
X112021352Y-70527291D02*
X112068971Y-70432053D01*
X112068971Y-70432053D02*
X112116590Y-70241577D01*
X112116590Y-70241577D02*
X112164209Y-70146339D01*
X112164209Y-70146339D02*
X112211828Y-70098720D01*
X112211828Y-70098720D02*
X112307066Y-70051101D01*
X112307066Y-70051101D02*
X112402304Y-70051101D01*
X112402304Y-70051101D02*
X112497542Y-70098720D01*
X112497542Y-70098720D02*
X112545161Y-70146339D01*
X112545161Y-70146339D02*
X112592780Y-70241577D01*
X112592780Y-70241577D02*
X112592780Y-70479672D01*
X112592780Y-70479672D02*
X112545161Y-70622529D01*
X112592780Y-71241577D02*
X112592780Y-71432053D01*
X112592780Y-71432053D02*
X112545161Y-71527291D01*
X112545161Y-71527291D02*
X112449923Y-71622529D01*
X112449923Y-71622529D02*
X112259447Y-71670148D01*
X112259447Y-71670148D02*
X111926114Y-71670148D01*
X111926114Y-71670148D02*
X111735638Y-71622529D01*
X111735638Y-71622529D02*
X111640400Y-71527291D01*
X111640400Y-71527291D02*
X111592780Y-71432053D01*
X111592780Y-71432053D02*
X111592780Y-71241577D01*
X111592780Y-71241577D02*
X111640400Y-71146339D01*
X111640400Y-71146339D02*
X111735638Y-71051101D01*
X111735638Y-71051101D02*
X111926114Y-71003482D01*
X111926114Y-71003482D02*
X112259447Y-71003482D01*
X112259447Y-71003482D02*
X112449923Y-71051101D01*
X112449923Y-71051101D02*
X112545161Y-71146339D01*
X112545161Y-71146339D02*
X112592780Y-71241577D01*
X168034435Y-72017219D02*
X168653482Y-72017219D01*
X168653482Y-72017219D02*
X168320149Y-72398171D01*
X168320149Y-72398171D02*
X168463006Y-72398171D01*
X168463006Y-72398171D02*
X168558244Y-72445790D01*
X168558244Y-72445790D02*
X168605863Y-72493409D01*
X168605863Y-72493409D02*
X168653482Y-72588647D01*
X168653482Y-72588647D02*
X168653482Y-72826742D01*
X168653482Y-72826742D02*
X168605863Y-72921980D01*
X168605863Y-72921980D02*
X168558244Y-72969600D01*
X168558244Y-72969600D02*
X168463006Y-73017219D01*
X168463006Y-73017219D02*
X168177292Y-73017219D01*
X168177292Y-73017219D02*
X168082054Y-72969600D01*
X168082054Y-72969600D02*
X168034435Y-72921980D01*
X169082054Y-72921980D02*
X169129673Y-72969600D01*
X169129673Y-72969600D02*
X169082054Y-73017219D01*
X169082054Y-73017219D02*
X169034435Y-72969600D01*
X169034435Y-72969600D02*
X169082054Y-72921980D01*
X169082054Y-72921980D02*
X169082054Y-73017219D01*
X169463006Y-72017219D02*
X170082053Y-72017219D01*
X170082053Y-72017219D02*
X169748720Y-72398171D01*
X169748720Y-72398171D02*
X169891577Y-72398171D01*
X169891577Y-72398171D02*
X169986815Y-72445790D01*
X169986815Y-72445790D02*
X170034434Y-72493409D01*
X170034434Y-72493409D02*
X170082053Y-72588647D01*
X170082053Y-72588647D02*
X170082053Y-72826742D01*
X170082053Y-72826742D02*
X170034434Y-72921980D01*
X170034434Y-72921980D02*
X169986815Y-72969600D01*
X169986815Y-72969600D02*
X169891577Y-73017219D01*
X169891577Y-73017219D02*
X169605863Y-73017219D01*
X169605863Y-73017219D02*
X169510625Y-72969600D01*
X169510625Y-72969600D02*
X169463006Y-72921980D01*
X170367768Y-72017219D02*
X170701101Y-73017219D01*
X170701101Y-73017219D02*
X171034434Y-72017219D01*
X111392780Y-108859673D02*
X112392780Y-108859673D01*
X112392780Y-109526339D02*
X112392780Y-109716815D01*
X112392780Y-109716815D02*
X112345161Y-109812053D01*
X112345161Y-109812053D02*
X112249923Y-109907291D01*
X112249923Y-109907291D02*
X112059447Y-109954910D01*
X112059447Y-109954910D02*
X111726114Y-109954910D01*
X111726114Y-109954910D02*
X111535638Y-109907291D01*
X111535638Y-109907291D02*
X111440400Y-109812053D01*
X111440400Y-109812053D02*
X111392780Y-109716815D01*
X111392780Y-109716815D02*
X111392780Y-109526339D01*
X111392780Y-109526339D02*
X111440400Y-109431101D01*
X111440400Y-109431101D02*
X111535638Y-109335863D01*
X111535638Y-109335863D02*
X111726114Y-109288244D01*
X111726114Y-109288244D02*
X112059447Y-109288244D01*
X112059447Y-109288244D02*
X112249923Y-109335863D01*
X112249923Y-109335863D02*
X112345161Y-109431101D01*
X112345161Y-109431101D02*
X112392780Y-109526339D01*
X111773733Y-110383482D02*
X111773733Y-111145387D01*
X111392780Y-112145386D02*
X111392780Y-111573958D01*
X111392780Y-111859672D02*
X112392780Y-111859672D01*
X112392780Y-111859672D02*
X112249923Y-111764434D01*
X112249923Y-111764434D02*
X112154685Y-111669196D01*
X112154685Y-111669196D02*
X112107066Y-111573958D01*
X112392780Y-112764434D02*
X112392780Y-112859672D01*
X112392780Y-112859672D02*
X112345161Y-112954910D01*
X112345161Y-112954910D02*
X112297542Y-113002529D01*
X112297542Y-113002529D02*
X112202304Y-113050148D01*
X112202304Y-113050148D02*
X112011828Y-113097767D01*
X112011828Y-113097767D02*
X111773733Y-113097767D01*
X111773733Y-113097767D02*
X111583257Y-113050148D01*
X111583257Y-113050148D02*
X111488019Y-113002529D01*
X111488019Y-113002529D02*
X111440400Y-112954910D01*
X111440400Y-112954910D02*
X111392780Y-112859672D01*
X111392780Y-112859672D02*
X111392780Y-112764434D01*
X111392780Y-112764434D02*
X111440400Y-112669196D01*
X111440400Y-112669196D02*
X111488019Y-112621577D01*
X111488019Y-112621577D02*
X111583257Y-112573958D01*
X111583257Y-112573958D02*
X111773733Y-112526339D01*
X111773733Y-112526339D02*
X112011828Y-112526339D01*
X112011828Y-112526339D02*
X112202304Y-112573958D01*
X112202304Y-112573958D02*
X112297542Y-112621577D01*
X112297542Y-112621577D02*
X112345161Y-112669196D01*
X112345161Y-112669196D02*
X112392780Y-112764434D01*
X153516517Y-56235161D02*
X153611755Y-56282780D01*
X153611755Y-56282780D02*
X153754612Y-56282780D01*
X153754612Y-56282780D02*
X153897469Y-56235161D01*
X153897469Y-56235161D02*
X153992707Y-56139923D01*
X153992707Y-56139923D02*
X154040326Y-56044685D01*
X154040326Y-56044685D02*
X154087945Y-55854209D01*
X154087945Y-55854209D02*
X154087945Y-55711352D01*
X154087945Y-55711352D02*
X154040326Y-55520876D01*
X154040326Y-55520876D02*
X153992707Y-55425638D01*
X153992707Y-55425638D02*
X153897469Y-55330400D01*
X153897469Y-55330400D02*
X153754612Y-55282780D01*
X153754612Y-55282780D02*
X153659374Y-55282780D01*
X153659374Y-55282780D02*
X153516517Y-55330400D01*
X153516517Y-55330400D02*
X153468898Y-55378019D01*
X153468898Y-55378019D02*
X153468898Y-55711352D01*
X153468898Y-55711352D02*
X153659374Y-55711352D01*
X111422780Y-103549673D02*
X112422780Y-103549673D01*
X112422780Y-104216339D02*
X112422780Y-104406815D01*
X112422780Y-104406815D02*
X112375161Y-104502053D01*
X112375161Y-104502053D02*
X112279923Y-104597291D01*
X112279923Y-104597291D02*
X112089447Y-104644910D01*
X112089447Y-104644910D02*
X111756114Y-104644910D01*
X111756114Y-104644910D02*
X111565638Y-104597291D01*
X111565638Y-104597291D02*
X111470400Y-104502053D01*
X111470400Y-104502053D02*
X111422780Y-104406815D01*
X111422780Y-104406815D02*
X111422780Y-104216339D01*
X111422780Y-104216339D02*
X111470400Y-104121101D01*
X111470400Y-104121101D02*
X111565638Y-104025863D01*
X111565638Y-104025863D02*
X111756114Y-103978244D01*
X111756114Y-103978244D02*
X112089447Y-103978244D01*
X112089447Y-103978244D02*
X112279923Y-104025863D01*
X112279923Y-104025863D02*
X112375161Y-104121101D01*
X112375161Y-104121101D02*
X112422780Y-104216339D01*
X111803733Y-105073482D02*
X111803733Y-105835387D01*
X112422780Y-106502053D02*
X112422780Y-106597291D01*
X112422780Y-106597291D02*
X112375161Y-106692529D01*
X112375161Y-106692529D02*
X112327542Y-106740148D01*
X112327542Y-106740148D02*
X112232304Y-106787767D01*
X112232304Y-106787767D02*
X112041828Y-106835386D01*
X112041828Y-106835386D02*
X111803733Y-106835386D01*
X111803733Y-106835386D02*
X111613257Y-106787767D01*
X111613257Y-106787767D02*
X111518019Y-106740148D01*
X111518019Y-106740148D02*
X111470400Y-106692529D01*
X111470400Y-106692529D02*
X111422780Y-106597291D01*
X111422780Y-106597291D02*
X111422780Y-106502053D01*
X111422780Y-106502053D02*
X111470400Y-106406815D01*
X111470400Y-106406815D02*
X111518019Y-106359196D01*
X111518019Y-106359196D02*
X111613257Y-106311577D01*
X111613257Y-106311577D02*
X111803733Y-106263958D01*
X111803733Y-106263958D02*
X112041828Y-106263958D01*
X112041828Y-106263958D02*
X112232304Y-106311577D01*
X112232304Y-106311577D02*
X112327542Y-106359196D01*
X112327542Y-106359196D02*
X112375161Y-106406815D01*
X112375161Y-106406815D02*
X112422780Y-106502053D01*
X111422780Y-107311577D02*
X111422780Y-107502053D01*
X111422780Y-107502053D02*
X111470400Y-107597291D01*
X111470400Y-107597291D02*
X111518019Y-107644910D01*
X111518019Y-107644910D02*
X111660876Y-107740148D01*
X111660876Y-107740148D02*
X111851352Y-107787767D01*
X111851352Y-107787767D02*
X112232304Y-107787767D01*
X112232304Y-107787767D02*
X112327542Y-107740148D01*
X112327542Y-107740148D02*
X112375161Y-107692529D01*
X112375161Y-107692529D02*
X112422780Y-107597291D01*
X112422780Y-107597291D02*
X112422780Y-107406815D01*
X112422780Y-107406815D02*
X112375161Y-107311577D01*
X112375161Y-107311577D02*
X112327542Y-107263958D01*
X112327542Y-107263958D02*
X112232304Y-107216339D01*
X112232304Y-107216339D02*
X111994209Y-107216339D01*
X111994209Y-107216339D02*
X111898971Y-107263958D01*
X111898971Y-107263958D02*
X111851352Y-107311577D01*
X111851352Y-107311577D02*
X111803733Y-107406815D01*
X111803733Y-107406815D02*
X111803733Y-107597291D01*
X111803733Y-107597291D02*
X111851352Y-107692529D01*
X111851352Y-107692529D02*
X111898971Y-107740148D01*
X111898971Y-107740148D02*
X111994209Y-107787767D01*
X157549850Y-56212780D02*
X157359374Y-56212780D01*
X157359374Y-56212780D02*
X157264136Y-56165161D01*
X157264136Y-56165161D02*
X157168898Y-56069923D01*
X157168898Y-56069923D02*
X157121279Y-55879447D01*
X157121279Y-55879447D02*
X157121279Y-55546114D01*
X157121279Y-55546114D02*
X157168898Y-55355638D01*
X157168898Y-55355638D02*
X157264136Y-55260400D01*
X157264136Y-55260400D02*
X157359374Y-55212780D01*
X157359374Y-55212780D02*
X157549850Y-55212780D01*
X157549850Y-55212780D02*
X157645088Y-55260400D01*
X157645088Y-55260400D02*
X157740326Y-55355638D01*
X157740326Y-55355638D02*
X157787945Y-55546114D01*
X157787945Y-55546114D02*
X157787945Y-55879447D01*
X157787945Y-55879447D02*
X157740326Y-56069923D01*
X157740326Y-56069923D02*
X157645088Y-56165161D01*
X157645088Y-56165161D02*
X157549850Y-56212780D01*
X156692707Y-56212780D02*
X156692707Y-55403257D01*
X156692707Y-55403257D02*
X156645088Y-55308019D01*
X156645088Y-55308019D02*
X156597469Y-55260400D01*
X156597469Y-55260400D02*
X156502231Y-55212780D01*
X156502231Y-55212780D02*
X156311755Y-55212780D01*
X156311755Y-55212780D02*
X156216517Y-55260400D01*
X156216517Y-55260400D02*
X156168898Y-55308019D01*
X156168898Y-55308019D02*
X156121279Y-55403257D01*
X156121279Y-55403257D02*
X156121279Y-56212780D01*
X155787945Y-56212780D02*
X155216517Y-56212780D01*
X155502231Y-55212780D02*
X155502231Y-56212780D01*
X151790326Y-55252780D02*
X151790326Y-56252780D01*
X151314136Y-55252780D02*
X151314136Y-56252780D01*
X151314136Y-56252780D02*
X150742708Y-55252780D01*
X150742708Y-55252780D02*
X150742708Y-56252780D01*
X140038898Y-55382780D02*
X140372231Y-55858971D01*
X140610326Y-55382780D02*
X140610326Y-56382780D01*
X140610326Y-56382780D02*
X140229374Y-56382780D01*
X140229374Y-56382780D02*
X140134136Y-56335161D01*
X140134136Y-56335161D02*
X140086517Y-56287542D01*
X140086517Y-56287542D02*
X140038898Y-56192304D01*
X140038898Y-56192304D02*
X140038898Y-56049447D01*
X140038898Y-56049447D02*
X140086517Y-55954209D01*
X140086517Y-55954209D02*
X140134136Y-55906590D01*
X140134136Y-55906590D02*
X140229374Y-55858971D01*
X140229374Y-55858971D02*
X140610326Y-55858971D01*
X139134136Y-55382780D02*
X139610326Y-55382780D01*
X139610326Y-55382780D02*
X139610326Y-56382780D01*
D11*
X132007142Y-70824819D02*
X131673809Y-70348628D01*
X131435714Y-70824819D02*
X131435714Y-69824819D01*
X131435714Y-69824819D02*
X131816666Y-69824819D01*
X131816666Y-69824819D02*
X131911904Y-69872438D01*
X131911904Y-69872438D02*
X131959523Y-69920057D01*
X131959523Y-69920057D02*
X132007142Y-70015295D01*
X132007142Y-70015295D02*
X132007142Y-70158152D01*
X132007142Y-70158152D02*
X131959523Y-70253390D01*
X131959523Y-70253390D02*
X131911904Y-70301009D01*
X131911904Y-70301009D02*
X131816666Y-70348628D01*
X131816666Y-70348628D02*
X131435714Y-70348628D01*
X132959523Y-70824819D02*
X132388095Y-70824819D01*
X132673809Y-70824819D02*
X132673809Y-69824819D01*
X132673809Y-69824819D02*
X132578571Y-69967676D01*
X132578571Y-69967676D02*
X132483333Y-70062914D01*
X132483333Y-70062914D02*
X132388095Y-70110533D01*
X133864285Y-69824819D02*
X133388095Y-69824819D01*
X133388095Y-69824819D02*
X133340476Y-70301009D01*
X133340476Y-70301009D02*
X133388095Y-70253390D01*
X133388095Y-70253390D02*
X133483333Y-70205771D01*
X133483333Y-70205771D02*
X133721428Y-70205771D01*
X133721428Y-70205771D02*
X133816666Y-70253390D01*
X133816666Y-70253390D02*
X133864285Y-70301009D01*
X133864285Y-70301009D02*
X133911904Y-70396247D01*
X133911904Y-70396247D02*
X133911904Y-70634342D01*
X133911904Y-70634342D02*
X133864285Y-70729580D01*
X133864285Y-70729580D02*
X133816666Y-70777200D01*
X133816666Y-70777200D02*
X133721428Y-70824819D01*
X133721428Y-70824819D02*
X133483333Y-70824819D01*
X133483333Y-70824819D02*
X133388095Y-70777200D01*
X133388095Y-70777200D02*
X133340476Y-70729580D01*
X133089761Y-82570057D02*
X132994523Y-82522438D01*
X132994523Y-82522438D02*
X132899285Y-82427200D01*
X132899285Y-82427200D02*
X132756428Y-82284342D01*
X132756428Y-82284342D02*
X132661190Y-82236723D01*
X132661190Y-82236723D02*
X132565952Y-82236723D01*
X132613571Y-82474819D02*
X132518333Y-82427200D01*
X132518333Y-82427200D02*
X132423095Y-82331961D01*
X132423095Y-82331961D02*
X132375476Y-82141485D01*
X132375476Y-82141485D02*
X132375476Y-81808152D01*
X132375476Y-81808152D02*
X132423095Y-81617676D01*
X132423095Y-81617676D02*
X132518333Y-81522438D01*
X132518333Y-81522438D02*
X132613571Y-81474819D01*
X132613571Y-81474819D02*
X132804047Y-81474819D01*
X132804047Y-81474819D02*
X132899285Y-81522438D01*
X132899285Y-81522438D02*
X132994523Y-81617676D01*
X132994523Y-81617676D02*
X133042142Y-81808152D01*
X133042142Y-81808152D02*
X133042142Y-82141485D01*
X133042142Y-82141485D02*
X132994523Y-82331961D01*
X132994523Y-82331961D02*
X132899285Y-82427200D01*
X132899285Y-82427200D02*
X132804047Y-82474819D01*
X132804047Y-82474819D02*
X132613571Y-82474819D01*
X133994523Y-82474819D02*
X133423095Y-82474819D01*
X133708809Y-82474819D02*
X133708809Y-81474819D01*
X133708809Y-81474819D02*
X133613571Y-81617676D01*
X133613571Y-81617676D02*
X133518333Y-81712914D01*
X133518333Y-81712914D02*
X133423095Y-81760533D01*
X151119580Y-71326666D02*
X151167200Y-71374285D01*
X151167200Y-71374285D02*
X151214819Y-71517142D01*
X151214819Y-71517142D02*
X151214819Y-71612380D01*
X151214819Y-71612380D02*
X151167200Y-71755237D01*
X151167200Y-71755237D02*
X151071961Y-71850475D01*
X151071961Y-71850475D02*
X150976723Y-71898094D01*
X150976723Y-71898094D02*
X150786247Y-71945713D01*
X150786247Y-71945713D02*
X150643390Y-71945713D01*
X150643390Y-71945713D02*
X150452914Y-71898094D01*
X150452914Y-71898094D02*
X150357676Y-71850475D01*
X150357676Y-71850475D02*
X150262438Y-71755237D01*
X150262438Y-71755237D02*
X150214819Y-71612380D01*
X150214819Y-71612380D02*
X150214819Y-71517142D01*
X150214819Y-71517142D02*
X150262438Y-71374285D01*
X150262438Y-71374285D02*
X150310057Y-71326666D01*
X150310057Y-70945713D02*
X150262438Y-70898094D01*
X150262438Y-70898094D02*
X150214819Y-70802856D01*
X150214819Y-70802856D02*
X150214819Y-70564761D01*
X150214819Y-70564761D02*
X150262438Y-70469523D01*
X150262438Y-70469523D02*
X150310057Y-70421904D01*
X150310057Y-70421904D02*
X150405295Y-70374285D01*
X150405295Y-70374285D02*
X150500533Y-70374285D01*
X150500533Y-70374285D02*
X150643390Y-70421904D01*
X150643390Y-70421904D02*
X151214819Y-70993332D01*
X151214819Y-70993332D02*
X151214819Y-70374285D01*
X113378095Y-59014819D02*
X113378095Y-58014819D01*
X113378095Y-58491009D02*
X113949523Y-58491009D01*
X113949523Y-59014819D02*
X113949523Y-58014819D01*
X114949523Y-59014819D02*
X114378095Y-59014819D01*
X114663809Y-59014819D02*
X114663809Y-58014819D01*
X114663809Y-58014819D02*
X114568571Y-58157676D01*
X114568571Y-58157676D02*
X114473333Y-58252914D01*
X114473333Y-58252914D02*
X114378095Y-58300533D01*
X127313333Y-102444819D02*
X126980000Y-101968628D01*
X126741905Y-102444819D02*
X126741905Y-101444819D01*
X126741905Y-101444819D02*
X127122857Y-101444819D01*
X127122857Y-101444819D02*
X127218095Y-101492438D01*
X127218095Y-101492438D02*
X127265714Y-101540057D01*
X127265714Y-101540057D02*
X127313333Y-101635295D01*
X127313333Y-101635295D02*
X127313333Y-101778152D01*
X127313333Y-101778152D02*
X127265714Y-101873390D01*
X127265714Y-101873390D02*
X127218095Y-101921009D01*
X127218095Y-101921009D02*
X127122857Y-101968628D01*
X127122857Y-101968628D02*
X126741905Y-101968628D01*
X127646667Y-101444819D02*
X128265714Y-101444819D01*
X128265714Y-101444819D02*
X127932381Y-101825771D01*
X127932381Y-101825771D02*
X128075238Y-101825771D01*
X128075238Y-101825771D02*
X128170476Y-101873390D01*
X128170476Y-101873390D02*
X128218095Y-101921009D01*
X128218095Y-101921009D02*
X128265714Y-102016247D01*
X128265714Y-102016247D02*
X128265714Y-102254342D01*
X128265714Y-102254342D02*
X128218095Y-102349580D01*
X128218095Y-102349580D02*
X128170476Y-102397200D01*
X128170476Y-102397200D02*
X128075238Y-102444819D01*
X128075238Y-102444819D02*
X127789524Y-102444819D01*
X127789524Y-102444819D02*
X127694286Y-102397200D01*
X127694286Y-102397200D02*
X127646667Y-102349580D01*
X161868333Y-77269819D02*
X161535000Y-76793628D01*
X161296905Y-77269819D02*
X161296905Y-76269819D01*
X161296905Y-76269819D02*
X161677857Y-76269819D01*
X161677857Y-76269819D02*
X161773095Y-76317438D01*
X161773095Y-76317438D02*
X161820714Y-76365057D01*
X161820714Y-76365057D02*
X161868333Y-76460295D01*
X161868333Y-76460295D02*
X161868333Y-76603152D01*
X161868333Y-76603152D02*
X161820714Y-76698390D01*
X161820714Y-76698390D02*
X161773095Y-76746009D01*
X161773095Y-76746009D02*
X161677857Y-76793628D01*
X161677857Y-76793628D02*
X161296905Y-76793628D01*
X162773095Y-76269819D02*
X162296905Y-76269819D01*
X162296905Y-76269819D02*
X162249286Y-76746009D01*
X162249286Y-76746009D02*
X162296905Y-76698390D01*
X162296905Y-76698390D02*
X162392143Y-76650771D01*
X162392143Y-76650771D02*
X162630238Y-76650771D01*
X162630238Y-76650771D02*
X162725476Y-76698390D01*
X162725476Y-76698390D02*
X162773095Y-76746009D01*
X162773095Y-76746009D02*
X162820714Y-76841247D01*
X162820714Y-76841247D02*
X162820714Y-77079342D01*
X162820714Y-77079342D02*
X162773095Y-77174580D01*
X162773095Y-77174580D02*
X162725476Y-77222200D01*
X162725476Y-77222200D02*
X162630238Y-77269819D01*
X162630238Y-77269819D02*
X162392143Y-77269819D01*
X162392143Y-77269819D02*
X162296905Y-77222200D01*
X162296905Y-77222200D02*
X162249286Y-77174580D01*
X113658095Y-117294819D02*
X113658095Y-116294819D01*
X113658095Y-116771009D02*
X114229523Y-116771009D01*
X114229523Y-117294819D02*
X114229523Y-116294819D01*
X115134285Y-116628152D02*
X115134285Y-117294819D01*
X114896190Y-116247200D02*
X114658095Y-116961485D01*
X114658095Y-116961485D02*
X115277142Y-116961485D01*
X132025833Y-74074819D02*
X131549643Y-74074819D01*
X131549643Y-74074819D02*
X131549643Y-73074819D01*
X132882976Y-74074819D02*
X132311548Y-74074819D01*
X132597262Y-74074819D02*
X132597262Y-73074819D01*
X132597262Y-73074819D02*
X132502024Y-73217676D01*
X132502024Y-73217676D02*
X132406786Y-73312914D01*
X132406786Y-73312914D02*
X132311548Y-73360533D01*
X166838095Y-117054819D02*
X166838095Y-116054819D01*
X166838095Y-116531009D02*
X167409523Y-116531009D01*
X167409523Y-117054819D02*
X167409523Y-116054819D01*
X167790476Y-116054819D02*
X168409523Y-116054819D01*
X168409523Y-116054819D02*
X168076190Y-116435771D01*
X168076190Y-116435771D02*
X168219047Y-116435771D01*
X168219047Y-116435771D02*
X168314285Y-116483390D01*
X168314285Y-116483390D02*
X168361904Y-116531009D01*
X168361904Y-116531009D02*
X168409523Y-116626247D01*
X168409523Y-116626247D02*
X168409523Y-116864342D01*
X168409523Y-116864342D02*
X168361904Y-116959580D01*
X168361904Y-116959580D02*
X168314285Y-117007200D01*
X168314285Y-117007200D02*
X168219047Y-117054819D01*
X168219047Y-117054819D02*
X167933333Y-117054819D01*
X167933333Y-117054819D02*
X167838095Y-117007200D01*
X167838095Y-117007200D02*
X167790476Y-116959580D01*
X135226666Y-65124819D02*
X135226666Y-65839104D01*
X135226666Y-65839104D02*
X135179047Y-65981961D01*
X135179047Y-65981961D02*
X135083809Y-66077200D01*
X135083809Y-66077200D02*
X134940952Y-66124819D01*
X134940952Y-66124819D02*
X134845714Y-66124819D01*
X136131428Y-65458152D02*
X136131428Y-66124819D01*
X135893333Y-65077200D02*
X135655238Y-65791485D01*
X135655238Y-65791485D02*
X136274285Y-65791485D01*
X161893333Y-74134819D02*
X161560000Y-73658628D01*
X161321905Y-74134819D02*
X161321905Y-73134819D01*
X161321905Y-73134819D02*
X161702857Y-73134819D01*
X161702857Y-73134819D02*
X161798095Y-73182438D01*
X161798095Y-73182438D02*
X161845714Y-73230057D01*
X161845714Y-73230057D02*
X161893333Y-73325295D01*
X161893333Y-73325295D02*
X161893333Y-73468152D01*
X161893333Y-73468152D02*
X161845714Y-73563390D01*
X161845714Y-73563390D02*
X161798095Y-73611009D01*
X161798095Y-73611009D02*
X161702857Y-73658628D01*
X161702857Y-73658628D02*
X161321905Y-73658628D01*
X162750476Y-73134819D02*
X162560000Y-73134819D01*
X162560000Y-73134819D02*
X162464762Y-73182438D01*
X162464762Y-73182438D02*
X162417143Y-73230057D01*
X162417143Y-73230057D02*
X162321905Y-73372914D01*
X162321905Y-73372914D02*
X162274286Y-73563390D01*
X162274286Y-73563390D02*
X162274286Y-73944342D01*
X162274286Y-73944342D02*
X162321905Y-74039580D01*
X162321905Y-74039580D02*
X162369524Y-74087200D01*
X162369524Y-74087200D02*
X162464762Y-74134819D01*
X162464762Y-74134819D02*
X162655238Y-74134819D01*
X162655238Y-74134819D02*
X162750476Y-74087200D01*
X162750476Y-74087200D02*
X162798095Y-74039580D01*
X162798095Y-74039580D02*
X162845714Y-73944342D01*
X162845714Y-73944342D02*
X162845714Y-73706247D01*
X162845714Y-73706247D02*
X162798095Y-73611009D01*
X162798095Y-73611009D02*
X162750476Y-73563390D01*
X162750476Y-73563390D02*
X162655238Y-73515771D01*
X162655238Y-73515771D02*
X162464762Y-73515771D01*
X162464762Y-73515771D02*
X162369524Y-73563390D01*
X162369524Y-73563390D02*
X162321905Y-73611009D01*
X162321905Y-73611009D02*
X162274286Y-73706247D01*
X150578095Y-118364819D02*
X150578095Y-119174342D01*
X150578095Y-119174342D02*
X150625714Y-119269580D01*
X150625714Y-119269580D02*
X150673333Y-119317200D01*
X150673333Y-119317200D02*
X150768571Y-119364819D01*
X150768571Y-119364819D02*
X150959047Y-119364819D01*
X150959047Y-119364819D02*
X151054285Y-119317200D01*
X151054285Y-119317200D02*
X151101904Y-119269580D01*
X151101904Y-119269580D02*
X151149523Y-119174342D01*
X151149523Y-119174342D02*
X151149523Y-118364819D01*
X152149523Y-119364819D02*
X151578095Y-119364819D01*
X151863809Y-119364819D02*
X151863809Y-118364819D01*
X151863809Y-118364819D02*
X151768571Y-118507676D01*
X151768571Y-118507676D02*
X151673333Y-118602914D01*
X151673333Y-118602914D02*
X151578095Y-118650533D01*
X149939580Y-75296666D02*
X149987200Y-75344285D01*
X149987200Y-75344285D02*
X150034819Y-75487142D01*
X150034819Y-75487142D02*
X150034819Y-75582380D01*
X150034819Y-75582380D02*
X149987200Y-75725237D01*
X149987200Y-75725237D02*
X149891961Y-75820475D01*
X149891961Y-75820475D02*
X149796723Y-75868094D01*
X149796723Y-75868094D02*
X149606247Y-75915713D01*
X149606247Y-75915713D02*
X149463390Y-75915713D01*
X149463390Y-75915713D02*
X149272914Y-75868094D01*
X149272914Y-75868094D02*
X149177676Y-75820475D01*
X149177676Y-75820475D02*
X149082438Y-75725237D01*
X149082438Y-75725237D02*
X149034819Y-75582380D01*
X149034819Y-75582380D02*
X149034819Y-75487142D01*
X149034819Y-75487142D02*
X149082438Y-75344285D01*
X149082438Y-75344285D02*
X149130057Y-75296666D01*
X149368152Y-74439523D02*
X150034819Y-74439523D01*
X148987200Y-74677618D02*
X149701485Y-74915713D01*
X149701485Y-74915713D02*
X149701485Y-74296666D01*
X128992800Y-112056667D02*
X128945180Y-112199524D01*
X128945180Y-112199524D02*
X128945180Y-112437619D01*
X128945180Y-112437619D02*
X128992800Y-112532857D01*
X128992800Y-112532857D02*
X129040419Y-112580476D01*
X129040419Y-112580476D02*
X129135657Y-112628095D01*
X129135657Y-112628095D02*
X129230895Y-112628095D01*
X129230895Y-112628095D02*
X129326133Y-112580476D01*
X129326133Y-112580476D02*
X129373752Y-112532857D01*
X129373752Y-112532857D02*
X129421371Y-112437619D01*
X129421371Y-112437619D02*
X129468990Y-112247143D01*
X129468990Y-112247143D02*
X129516609Y-112151905D01*
X129516609Y-112151905D02*
X129564228Y-112104286D01*
X129564228Y-112104286D02*
X129659466Y-112056667D01*
X129659466Y-112056667D02*
X129754704Y-112056667D01*
X129754704Y-112056667D02*
X129849942Y-112104286D01*
X129849942Y-112104286D02*
X129897561Y-112151905D01*
X129897561Y-112151905D02*
X129945180Y-112247143D01*
X129945180Y-112247143D02*
X129945180Y-112485238D01*
X129945180Y-112485238D02*
X129897561Y-112628095D01*
X129945180Y-112961429D02*
X128945180Y-113199524D01*
X128945180Y-113199524D02*
X129659466Y-113390000D01*
X129659466Y-113390000D02*
X128945180Y-113580476D01*
X128945180Y-113580476D02*
X129945180Y-113818572D01*
X128945180Y-114723333D02*
X128945180Y-114151905D01*
X128945180Y-114437619D02*
X129945180Y-114437619D01*
X129945180Y-114437619D02*
X129802323Y-114342381D01*
X129802323Y-114342381D02*
X129707085Y-114247143D01*
X129707085Y-114247143D02*
X129659466Y-114151905D01*
X137969580Y-77679265D02*
X138017200Y-77726884D01*
X138017200Y-77726884D02*
X138064819Y-77869741D01*
X138064819Y-77869741D02*
X138064819Y-77964979D01*
X138064819Y-77964979D02*
X138017200Y-78107836D01*
X138017200Y-78107836D02*
X137921961Y-78203074D01*
X137921961Y-78203074D02*
X137826723Y-78250693D01*
X137826723Y-78250693D02*
X137636247Y-78298312D01*
X137636247Y-78298312D02*
X137493390Y-78298312D01*
X137493390Y-78298312D02*
X137302914Y-78250693D01*
X137302914Y-78250693D02*
X137207676Y-78203074D01*
X137207676Y-78203074D02*
X137112438Y-78107836D01*
X137112438Y-78107836D02*
X137064819Y-77964979D01*
X137064819Y-77964979D02*
X137064819Y-77869741D01*
X137064819Y-77869741D02*
X137112438Y-77726884D01*
X137112438Y-77726884D02*
X137160057Y-77679265D01*
X137064819Y-77345931D02*
X137064819Y-76726884D01*
X137064819Y-76726884D02*
X137445771Y-77060217D01*
X137445771Y-77060217D02*
X137445771Y-76917360D01*
X137445771Y-76917360D02*
X137493390Y-76822122D01*
X137493390Y-76822122D02*
X137541009Y-76774503D01*
X137541009Y-76774503D02*
X137636247Y-76726884D01*
X137636247Y-76726884D02*
X137874342Y-76726884D01*
X137874342Y-76726884D02*
X137969580Y-76774503D01*
X137969580Y-76774503D02*
X138017200Y-76822122D01*
X138017200Y-76822122D02*
X138064819Y-76917360D01*
X138064819Y-76917360D02*
X138064819Y-77203074D01*
X138064819Y-77203074D02*
X138017200Y-77298312D01*
X138017200Y-77298312D02*
X137969580Y-77345931D01*
X134888095Y-69014819D02*
X134888095Y-69824342D01*
X134888095Y-69824342D02*
X134935714Y-69919580D01*
X134935714Y-69919580D02*
X134983333Y-69967200D01*
X134983333Y-69967200D02*
X135078571Y-70014819D01*
X135078571Y-70014819D02*
X135269047Y-70014819D01*
X135269047Y-70014819D02*
X135364285Y-69967200D01*
X135364285Y-69967200D02*
X135411904Y-69919580D01*
X135411904Y-69919580D02*
X135459523Y-69824342D01*
X135459523Y-69824342D02*
X135459523Y-69014819D01*
X135888095Y-69110057D02*
X135935714Y-69062438D01*
X135935714Y-69062438D02*
X136030952Y-69014819D01*
X136030952Y-69014819D02*
X136269047Y-69014819D01*
X136269047Y-69014819D02*
X136364285Y-69062438D01*
X136364285Y-69062438D02*
X136411904Y-69110057D01*
X136411904Y-69110057D02*
X136459523Y-69205295D01*
X136459523Y-69205295D02*
X136459523Y-69300533D01*
X136459523Y-69300533D02*
X136411904Y-69443390D01*
X136411904Y-69443390D02*
X135840476Y-70014819D01*
X135840476Y-70014819D02*
X136459523Y-70014819D01*
X154603333Y-97339580D02*
X154555714Y-97387200D01*
X154555714Y-97387200D02*
X154412857Y-97434819D01*
X154412857Y-97434819D02*
X154317619Y-97434819D01*
X154317619Y-97434819D02*
X154174762Y-97387200D01*
X154174762Y-97387200D02*
X154079524Y-97291961D01*
X154079524Y-97291961D02*
X154031905Y-97196723D01*
X154031905Y-97196723D02*
X153984286Y-97006247D01*
X153984286Y-97006247D02*
X153984286Y-96863390D01*
X153984286Y-96863390D02*
X154031905Y-96672914D01*
X154031905Y-96672914D02*
X154079524Y-96577676D01*
X154079524Y-96577676D02*
X154174762Y-96482438D01*
X154174762Y-96482438D02*
X154317619Y-96434819D01*
X154317619Y-96434819D02*
X154412857Y-96434819D01*
X154412857Y-96434819D02*
X154555714Y-96482438D01*
X154555714Y-96482438D02*
X154603333Y-96530057D01*
X155555714Y-97434819D02*
X154984286Y-97434819D01*
X155270000Y-97434819D02*
X155270000Y-96434819D01*
X155270000Y-96434819D02*
X155174762Y-96577676D01*
X155174762Y-96577676D02*
X155079524Y-96672914D01*
X155079524Y-96672914D02*
X154984286Y-96720533D01*
X161172142Y-94134819D02*
X160838809Y-93658628D01*
X160600714Y-94134819D02*
X160600714Y-93134819D01*
X160600714Y-93134819D02*
X160981666Y-93134819D01*
X160981666Y-93134819D02*
X161076904Y-93182438D01*
X161076904Y-93182438D02*
X161124523Y-93230057D01*
X161124523Y-93230057D02*
X161172142Y-93325295D01*
X161172142Y-93325295D02*
X161172142Y-93468152D01*
X161172142Y-93468152D02*
X161124523Y-93563390D01*
X161124523Y-93563390D02*
X161076904Y-93611009D01*
X161076904Y-93611009D02*
X160981666Y-93658628D01*
X160981666Y-93658628D02*
X160600714Y-93658628D01*
X162124523Y-94134819D02*
X161553095Y-94134819D01*
X161838809Y-94134819D02*
X161838809Y-93134819D01*
X161838809Y-93134819D02*
X161743571Y-93277676D01*
X161743571Y-93277676D02*
X161648333Y-93372914D01*
X161648333Y-93372914D02*
X161553095Y-93420533D01*
X163076904Y-94134819D02*
X162505476Y-94134819D01*
X162791190Y-94134819D02*
X162791190Y-93134819D01*
X162791190Y-93134819D02*
X162695952Y-93277676D01*
X162695952Y-93277676D02*
X162600714Y-93372914D01*
X162600714Y-93372914D02*
X162505476Y-93420533D01*
X151243333Y-107824819D02*
X150910000Y-107348628D01*
X150671905Y-107824819D02*
X150671905Y-106824819D01*
X150671905Y-106824819D02*
X151052857Y-106824819D01*
X151052857Y-106824819D02*
X151148095Y-106872438D01*
X151148095Y-106872438D02*
X151195714Y-106920057D01*
X151195714Y-106920057D02*
X151243333Y-107015295D01*
X151243333Y-107015295D02*
X151243333Y-107158152D01*
X151243333Y-107158152D02*
X151195714Y-107253390D01*
X151195714Y-107253390D02*
X151148095Y-107301009D01*
X151148095Y-107301009D02*
X151052857Y-107348628D01*
X151052857Y-107348628D02*
X150671905Y-107348628D01*
X152195714Y-107824819D02*
X151624286Y-107824819D01*
X151910000Y-107824819D02*
X151910000Y-106824819D01*
X151910000Y-106824819D02*
X151814762Y-106967676D01*
X151814762Y-106967676D02*
X151719524Y-107062914D01*
X151719524Y-107062914D02*
X151624286Y-107110533D01*
X137040833Y-87754819D02*
X136707500Y-87278628D01*
X136469405Y-87754819D02*
X136469405Y-86754819D01*
X136469405Y-86754819D02*
X136850357Y-86754819D01*
X136850357Y-86754819D02*
X136945595Y-86802438D01*
X136945595Y-86802438D02*
X136993214Y-86850057D01*
X136993214Y-86850057D02*
X137040833Y-86945295D01*
X137040833Y-86945295D02*
X137040833Y-87088152D01*
X137040833Y-87088152D02*
X136993214Y-87183390D01*
X136993214Y-87183390D02*
X136945595Y-87231009D01*
X136945595Y-87231009D02*
X136850357Y-87278628D01*
X136850357Y-87278628D02*
X136469405Y-87278628D01*
X137374167Y-86754819D02*
X138040833Y-86754819D01*
X138040833Y-86754819D02*
X137612262Y-87754819D01*
X157169642Y-102404819D02*
X156836309Y-101928628D01*
X156598214Y-102404819D02*
X156598214Y-101404819D01*
X156598214Y-101404819D02*
X156979166Y-101404819D01*
X156979166Y-101404819D02*
X157074404Y-101452438D01*
X157074404Y-101452438D02*
X157122023Y-101500057D01*
X157122023Y-101500057D02*
X157169642Y-101595295D01*
X157169642Y-101595295D02*
X157169642Y-101738152D01*
X157169642Y-101738152D02*
X157122023Y-101833390D01*
X157122023Y-101833390D02*
X157074404Y-101881009D01*
X157074404Y-101881009D02*
X156979166Y-101928628D01*
X156979166Y-101928628D02*
X156598214Y-101928628D01*
X158122023Y-102404819D02*
X157550595Y-102404819D01*
X157836309Y-102404819D02*
X157836309Y-101404819D01*
X157836309Y-101404819D02*
X157741071Y-101547676D01*
X157741071Y-101547676D02*
X157645833Y-101642914D01*
X157645833Y-101642914D02*
X157550595Y-101690533D01*
X158502976Y-101500057D02*
X158550595Y-101452438D01*
X158550595Y-101452438D02*
X158645833Y-101404819D01*
X158645833Y-101404819D02*
X158883928Y-101404819D01*
X158883928Y-101404819D02*
X158979166Y-101452438D01*
X158979166Y-101452438D02*
X159026785Y-101500057D01*
X159026785Y-101500057D02*
X159074404Y-101595295D01*
X159074404Y-101595295D02*
X159074404Y-101690533D01*
X159074404Y-101690533D02*
X159026785Y-101833390D01*
X159026785Y-101833390D02*
X158455357Y-102404819D01*
X158455357Y-102404819D02*
X159074404Y-102404819D01*
X143683809Y-82418628D02*
X143683809Y-82894819D01*
X143350476Y-81894819D02*
X143683809Y-82418628D01*
X143683809Y-82418628D02*
X144017142Y-81894819D01*
X144874285Y-82894819D02*
X144302857Y-82894819D01*
X144588571Y-82894819D02*
X144588571Y-81894819D01*
X144588571Y-81894819D02*
X144493333Y-82037676D01*
X144493333Y-82037676D02*
X144398095Y-82132914D01*
X144398095Y-82132914D02*
X144302857Y-82180533D01*
X153178095Y-93434819D02*
X153178095Y-94244342D01*
X153178095Y-94244342D02*
X153225714Y-94339580D01*
X153225714Y-94339580D02*
X153273333Y-94387200D01*
X153273333Y-94387200D02*
X153368571Y-94434819D01*
X153368571Y-94434819D02*
X153559047Y-94434819D01*
X153559047Y-94434819D02*
X153654285Y-94387200D01*
X153654285Y-94387200D02*
X153701904Y-94339580D01*
X153701904Y-94339580D02*
X153749523Y-94244342D01*
X153749523Y-94244342D02*
X153749523Y-93434819D01*
X154654285Y-93768152D02*
X154654285Y-94434819D01*
X154416190Y-93387200D02*
X154178095Y-94101485D01*
X154178095Y-94101485D02*
X154797142Y-94101485D01*
X158415833Y-83424819D02*
X158082500Y-82948628D01*
X157844405Y-83424819D02*
X157844405Y-82424819D01*
X157844405Y-82424819D02*
X158225357Y-82424819D01*
X158225357Y-82424819D02*
X158320595Y-82472438D01*
X158320595Y-82472438D02*
X158368214Y-82520057D01*
X158368214Y-82520057D02*
X158415833Y-82615295D01*
X158415833Y-82615295D02*
X158415833Y-82758152D01*
X158415833Y-82758152D02*
X158368214Y-82853390D01*
X158368214Y-82853390D02*
X158320595Y-82901009D01*
X158320595Y-82901009D02*
X158225357Y-82948628D01*
X158225357Y-82948628D02*
X157844405Y-82948628D01*
X158892024Y-83424819D02*
X159082500Y-83424819D01*
X159082500Y-83424819D02*
X159177738Y-83377200D01*
X159177738Y-83377200D02*
X159225357Y-83329580D01*
X159225357Y-83329580D02*
X159320595Y-83186723D01*
X159320595Y-83186723D02*
X159368214Y-82996247D01*
X159368214Y-82996247D02*
X159368214Y-82615295D01*
X159368214Y-82615295D02*
X159320595Y-82520057D01*
X159320595Y-82520057D02*
X159272976Y-82472438D01*
X159272976Y-82472438D02*
X159177738Y-82424819D01*
X159177738Y-82424819D02*
X158987262Y-82424819D01*
X158987262Y-82424819D02*
X158892024Y-82472438D01*
X158892024Y-82472438D02*
X158844405Y-82520057D01*
X158844405Y-82520057D02*
X158796786Y-82615295D01*
X158796786Y-82615295D02*
X158796786Y-82853390D01*
X158796786Y-82853390D02*
X158844405Y-82948628D01*
X158844405Y-82948628D02*
X158892024Y-82996247D01*
X158892024Y-82996247D02*
X158987262Y-83043866D01*
X158987262Y-83043866D02*
X159177738Y-83043866D01*
X159177738Y-83043866D02*
X159272976Y-82996247D01*
X159272976Y-82996247D02*
X159320595Y-82948628D01*
X159320595Y-82948628D02*
X159368214Y-82853390D01*
X151113333Y-105464819D02*
X150780000Y-104988628D01*
X150541905Y-105464819D02*
X150541905Y-104464819D01*
X150541905Y-104464819D02*
X150922857Y-104464819D01*
X150922857Y-104464819D02*
X151018095Y-104512438D01*
X151018095Y-104512438D02*
X151065714Y-104560057D01*
X151065714Y-104560057D02*
X151113333Y-104655295D01*
X151113333Y-104655295D02*
X151113333Y-104798152D01*
X151113333Y-104798152D02*
X151065714Y-104893390D01*
X151065714Y-104893390D02*
X151018095Y-104941009D01*
X151018095Y-104941009D02*
X150922857Y-104988628D01*
X150922857Y-104988628D02*
X150541905Y-104988628D01*
X151494286Y-104560057D02*
X151541905Y-104512438D01*
X151541905Y-104512438D02*
X151637143Y-104464819D01*
X151637143Y-104464819D02*
X151875238Y-104464819D01*
X151875238Y-104464819D02*
X151970476Y-104512438D01*
X151970476Y-104512438D02*
X152018095Y-104560057D01*
X152018095Y-104560057D02*
X152065714Y-104655295D01*
X152065714Y-104655295D02*
X152065714Y-104750533D01*
X152065714Y-104750533D02*
X152018095Y-104893390D01*
X152018095Y-104893390D02*
X151446667Y-105464819D01*
X151446667Y-105464819D02*
X152065714Y-105464819D01*
X152862800Y-112146667D02*
X152815180Y-112289524D01*
X152815180Y-112289524D02*
X152815180Y-112527619D01*
X152815180Y-112527619D02*
X152862800Y-112622857D01*
X152862800Y-112622857D02*
X152910419Y-112670476D01*
X152910419Y-112670476D02*
X153005657Y-112718095D01*
X153005657Y-112718095D02*
X153100895Y-112718095D01*
X153100895Y-112718095D02*
X153196133Y-112670476D01*
X153196133Y-112670476D02*
X153243752Y-112622857D01*
X153243752Y-112622857D02*
X153291371Y-112527619D01*
X153291371Y-112527619D02*
X153338990Y-112337143D01*
X153338990Y-112337143D02*
X153386609Y-112241905D01*
X153386609Y-112241905D02*
X153434228Y-112194286D01*
X153434228Y-112194286D02*
X153529466Y-112146667D01*
X153529466Y-112146667D02*
X153624704Y-112146667D01*
X153624704Y-112146667D02*
X153719942Y-112194286D01*
X153719942Y-112194286D02*
X153767561Y-112241905D01*
X153767561Y-112241905D02*
X153815180Y-112337143D01*
X153815180Y-112337143D02*
X153815180Y-112575238D01*
X153815180Y-112575238D02*
X153767561Y-112718095D01*
X153815180Y-113051429D02*
X152815180Y-113289524D01*
X152815180Y-113289524D02*
X153529466Y-113480000D01*
X153529466Y-113480000D02*
X152815180Y-113670476D01*
X152815180Y-113670476D02*
X153815180Y-113908572D01*
X153719942Y-114241905D02*
X153767561Y-114289524D01*
X153767561Y-114289524D02*
X153815180Y-114384762D01*
X153815180Y-114384762D02*
X153815180Y-114622857D01*
X153815180Y-114622857D02*
X153767561Y-114718095D01*
X153767561Y-114718095D02*
X153719942Y-114765714D01*
X153719942Y-114765714D02*
X153624704Y-114813333D01*
X153624704Y-114813333D02*
X153529466Y-114813333D01*
X153529466Y-114813333D02*
X153386609Y-114765714D01*
X153386609Y-114765714D02*
X152815180Y-114194286D01*
X152815180Y-114194286D02*
X152815180Y-114813333D01*
X158445833Y-91124819D02*
X158112500Y-90648628D01*
X157874405Y-91124819D02*
X157874405Y-90124819D01*
X157874405Y-90124819D02*
X158255357Y-90124819D01*
X158255357Y-90124819D02*
X158350595Y-90172438D01*
X158350595Y-90172438D02*
X158398214Y-90220057D01*
X158398214Y-90220057D02*
X158445833Y-90315295D01*
X158445833Y-90315295D02*
X158445833Y-90458152D01*
X158445833Y-90458152D02*
X158398214Y-90553390D01*
X158398214Y-90553390D02*
X158350595Y-90601009D01*
X158350595Y-90601009D02*
X158255357Y-90648628D01*
X158255357Y-90648628D02*
X157874405Y-90648628D01*
X159017262Y-90553390D02*
X158922024Y-90505771D01*
X158922024Y-90505771D02*
X158874405Y-90458152D01*
X158874405Y-90458152D02*
X158826786Y-90362914D01*
X158826786Y-90362914D02*
X158826786Y-90315295D01*
X158826786Y-90315295D02*
X158874405Y-90220057D01*
X158874405Y-90220057D02*
X158922024Y-90172438D01*
X158922024Y-90172438D02*
X159017262Y-90124819D01*
X159017262Y-90124819D02*
X159207738Y-90124819D01*
X159207738Y-90124819D02*
X159302976Y-90172438D01*
X159302976Y-90172438D02*
X159350595Y-90220057D01*
X159350595Y-90220057D02*
X159398214Y-90315295D01*
X159398214Y-90315295D02*
X159398214Y-90362914D01*
X159398214Y-90362914D02*
X159350595Y-90458152D01*
X159350595Y-90458152D02*
X159302976Y-90505771D01*
X159302976Y-90505771D02*
X159207738Y-90553390D01*
X159207738Y-90553390D02*
X159017262Y-90553390D01*
X159017262Y-90553390D02*
X158922024Y-90601009D01*
X158922024Y-90601009D02*
X158874405Y-90648628D01*
X158874405Y-90648628D02*
X158826786Y-90743866D01*
X158826786Y-90743866D02*
X158826786Y-90934342D01*
X158826786Y-90934342D02*
X158874405Y-91029580D01*
X158874405Y-91029580D02*
X158922024Y-91077200D01*
X158922024Y-91077200D02*
X159017262Y-91124819D01*
X159017262Y-91124819D02*
X159207738Y-91124819D01*
X159207738Y-91124819D02*
X159302976Y-91077200D01*
X159302976Y-91077200D02*
X159350595Y-91029580D01*
X159350595Y-91029580D02*
X159398214Y-90934342D01*
X159398214Y-90934342D02*
X159398214Y-90743866D01*
X159398214Y-90743866D02*
X159350595Y-90648628D01*
X159350595Y-90648628D02*
X159302976Y-90601009D01*
X159302976Y-90601009D02*
X159207738Y-90553390D01*
X127293333Y-98474819D02*
X126960000Y-97998628D01*
X126721905Y-98474819D02*
X126721905Y-97474819D01*
X126721905Y-97474819D02*
X127102857Y-97474819D01*
X127102857Y-97474819D02*
X127198095Y-97522438D01*
X127198095Y-97522438D02*
X127245714Y-97570057D01*
X127245714Y-97570057D02*
X127293333Y-97665295D01*
X127293333Y-97665295D02*
X127293333Y-97808152D01*
X127293333Y-97808152D02*
X127245714Y-97903390D01*
X127245714Y-97903390D02*
X127198095Y-97951009D01*
X127198095Y-97951009D02*
X127102857Y-97998628D01*
X127102857Y-97998628D02*
X126721905Y-97998628D01*
X128150476Y-97808152D02*
X128150476Y-98474819D01*
X127912381Y-97427200D02*
X127674286Y-98141485D01*
X127674286Y-98141485D02*
X128293333Y-98141485D01*
X155291905Y-69214819D02*
X155291905Y-68214819D01*
X155291905Y-68214819D02*
X155530000Y-68214819D01*
X155530000Y-68214819D02*
X155672857Y-68262438D01*
X155672857Y-68262438D02*
X155768095Y-68357676D01*
X155768095Y-68357676D02*
X155815714Y-68452914D01*
X155815714Y-68452914D02*
X155863333Y-68643390D01*
X155863333Y-68643390D02*
X155863333Y-68786247D01*
X155863333Y-68786247D02*
X155815714Y-68976723D01*
X155815714Y-68976723D02*
X155768095Y-69071961D01*
X155768095Y-69071961D02*
X155672857Y-69167200D01*
X155672857Y-69167200D02*
X155530000Y-69214819D01*
X155530000Y-69214819D02*
X155291905Y-69214819D01*
X156244286Y-68310057D02*
X156291905Y-68262438D01*
X156291905Y-68262438D02*
X156387143Y-68214819D01*
X156387143Y-68214819D02*
X156625238Y-68214819D01*
X156625238Y-68214819D02*
X156720476Y-68262438D01*
X156720476Y-68262438D02*
X156768095Y-68310057D01*
X156768095Y-68310057D02*
X156815714Y-68405295D01*
X156815714Y-68405295D02*
X156815714Y-68500533D01*
X156815714Y-68500533D02*
X156768095Y-68643390D01*
X156768095Y-68643390D02*
X156196667Y-69214819D01*
X156196667Y-69214819D02*
X156815714Y-69214819D01*
X161507142Y-66354819D02*
X161173809Y-65878628D01*
X160935714Y-66354819D02*
X160935714Y-65354819D01*
X160935714Y-65354819D02*
X161316666Y-65354819D01*
X161316666Y-65354819D02*
X161411904Y-65402438D01*
X161411904Y-65402438D02*
X161459523Y-65450057D01*
X161459523Y-65450057D02*
X161507142Y-65545295D01*
X161507142Y-65545295D02*
X161507142Y-65688152D01*
X161507142Y-65688152D02*
X161459523Y-65783390D01*
X161459523Y-65783390D02*
X161411904Y-65831009D01*
X161411904Y-65831009D02*
X161316666Y-65878628D01*
X161316666Y-65878628D02*
X160935714Y-65878628D01*
X162459523Y-66354819D02*
X161888095Y-66354819D01*
X162173809Y-66354819D02*
X162173809Y-65354819D01*
X162173809Y-65354819D02*
X162078571Y-65497676D01*
X162078571Y-65497676D02*
X161983333Y-65592914D01*
X161983333Y-65592914D02*
X161888095Y-65640533D01*
X163316666Y-65688152D02*
X163316666Y-66354819D01*
X163078571Y-65307200D02*
X162840476Y-66021485D01*
X162840476Y-66021485D02*
X163459523Y-66021485D01*
X157264642Y-106054819D02*
X156931309Y-105578628D01*
X156693214Y-106054819D02*
X156693214Y-105054819D01*
X156693214Y-105054819D02*
X157074166Y-105054819D01*
X157074166Y-105054819D02*
X157169404Y-105102438D01*
X157169404Y-105102438D02*
X157217023Y-105150057D01*
X157217023Y-105150057D02*
X157264642Y-105245295D01*
X157264642Y-105245295D02*
X157264642Y-105388152D01*
X157264642Y-105388152D02*
X157217023Y-105483390D01*
X157217023Y-105483390D02*
X157169404Y-105531009D01*
X157169404Y-105531009D02*
X157074166Y-105578628D01*
X157074166Y-105578628D02*
X156693214Y-105578628D01*
X158217023Y-106054819D02*
X157645595Y-106054819D01*
X157931309Y-106054819D02*
X157931309Y-105054819D01*
X157931309Y-105054819D02*
X157836071Y-105197676D01*
X157836071Y-105197676D02*
X157740833Y-105292914D01*
X157740833Y-105292914D02*
X157645595Y-105340533D01*
X158550357Y-105054819D02*
X159169404Y-105054819D01*
X159169404Y-105054819D02*
X158836071Y-105435771D01*
X158836071Y-105435771D02*
X158978928Y-105435771D01*
X158978928Y-105435771D02*
X159074166Y-105483390D01*
X159074166Y-105483390D02*
X159121785Y-105531009D01*
X159121785Y-105531009D02*
X159169404Y-105626247D01*
X159169404Y-105626247D02*
X159169404Y-105864342D01*
X159169404Y-105864342D02*
X159121785Y-105959580D01*
X159121785Y-105959580D02*
X159074166Y-106007200D01*
X159074166Y-106007200D02*
X158978928Y-106054819D01*
X158978928Y-106054819D02*
X158693214Y-106054819D01*
X158693214Y-106054819D02*
X158597976Y-106007200D01*
X158597976Y-106007200D02*
X158550357Y-105959580D01*
X155629580Y-75326666D02*
X155677200Y-75374285D01*
X155677200Y-75374285D02*
X155724819Y-75517142D01*
X155724819Y-75517142D02*
X155724819Y-75612380D01*
X155724819Y-75612380D02*
X155677200Y-75755237D01*
X155677200Y-75755237D02*
X155581961Y-75850475D01*
X155581961Y-75850475D02*
X155486723Y-75898094D01*
X155486723Y-75898094D02*
X155296247Y-75945713D01*
X155296247Y-75945713D02*
X155153390Y-75945713D01*
X155153390Y-75945713D02*
X154962914Y-75898094D01*
X154962914Y-75898094D02*
X154867676Y-75850475D01*
X154867676Y-75850475D02*
X154772438Y-75755237D01*
X154772438Y-75755237D02*
X154724819Y-75612380D01*
X154724819Y-75612380D02*
X154724819Y-75517142D01*
X154724819Y-75517142D02*
X154772438Y-75374285D01*
X154772438Y-75374285D02*
X154820057Y-75326666D01*
X154724819Y-74421904D02*
X154724819Y-74898094D01*
X154724819Y-74898094D02*
X155201009Y-74945713D01*
X155201009Y-74945713D02*
X155153390Y-74898094D01*
X155153390Y-74898094D02*
X155105771Y-74802856D01*
X155105771Y-74802856D02*
X155105771Y-74564761D01*
X155105771Y-74564761D02*
X155153390Y-74469523D01*
X155153390Y-74469523D02*
X155201009Y-74421904D01*
X155201009Y-74421904D02*
X155296247Y-74374285D01*
X155296247Y-74374285D02*
X155534342Y-74374285D01*
X155534342Y-74374285D02*
X155629580Y-74421904D01*
X155629580Y-74421904D02*
X155677200Y-74469523D01*
X155677200Y-74469523D02*
X155724819Y-74564761D01*
X155724819Y-74564761D02*
X155724819Y-74802856D01*
X155724819Y-74802856D02*
X155677200Y-74898094D01*
X155677200Y-74898094D02*
X155629580Y-74945713D01*
X156761905Y-81884819D02*
X156761905Y-80884819D01*
X156761905Y-80884819D02*
X157000000Y-80884819D01*
X157000000Y-80884819D02*
X157142857Y-80932438D01*
X157142857Y-80932438D02*
X157238095Y-81027676D01*
X157238095Y-81027676D02*
X157285714Y-81122914D01*
X157285714Y-81122914D02*
X157333333Y-81313390D01*
X157333333Y-81313390D02*
X157333333Y-81456247D01*
X157333333Y-81456247D02*
X157285714Y-81646723D01*
X157285714Y-81646723D02*
X157238095Y-81741961D01*
X157238095Y-81741961D02*
X157142857Y-81837200D01*
X157142857Y-81837200D02*
X157000000Y-81884819D01*
X157000000Y-81884819D02*
X156761905Y-81884819D01*
X157666667Y-80884819D02*
X158285714Y-80884819D01*
X158285714Y-80884819D02*
X157952381Y-81265771D01*
X157952381Y-81265771D02*
X158095238Y-81265771D01*
X158095238Y-81265771D02*
X158190476Y-81313390D01*
X158190476Y-81313390D02*
X158238095Y-81361009D01*
X158238095Y-81361009D02*
X158285714Y-81456247D01*
X158285714Y-81456247D02*
X158285714Y-81694342D01*
X158285714Y-81694342D02*
X158238095Y-81789580D01*
X158238095Y-81789580D02*
X158190476Y-81837200D01*
X158190476Y-81837200D02*
X158095238Y-81884819D01*
X158095238Y-81884819D02*
X157809524Y-81884819D01*
X157809524Y-81884819D02*
X157714286Y-81837200D01*
X157714286Y-81837200D02*
X157666667Y-81789580D01*
X122204819Y-62723333D02*
X122919104Y-62723333D01*
X122919104Y-62723333D02*
X123061961Y-62770952D01*
X123061961Y-62770952D02*
X123157200Y-62866190D01*
X123157200Y-62866190D02*
X123204819Y-63009047D01*
X123204819Y-63009047D02*
X123204819Y-63104285D01*
X122633390Y-62104285D02*
X122585771Y-62199523D01*
X122585771Y-62199523D02*
X122538152Y-62247142D01*
X122538152Y-62247142D02*
X122442914Y-62294761D01*
X122442914Y-62294761D02*
X122395295Y-62294761D01*
X122395295Y-62294761D02*
X122300057Y-62247142D01*
X122300057Y-62247142D02*
X122252438Y-62199523D01*
X122252438Y-62199523D02*
X122204819Y-62104285D01*
X122204819Y-62104285D02*
X122204819Y-61913809D01*
X122204819Y-61913809D02*
X122252438Y-61818571D01*
X122252438Y-61818571D02*
X122300057Y-61770952D01*
X122300057Y-61770952D02*
X122395295Y-61723333D01*
X122395295Y-61723333D02*
X122442914Y-61723333D01*
X122442914Y-61723333D02*
X122538152Y-61770952D01*
X122538152Y-61770952D02*
X122585771Y-61818571D01*
X122585771Y-61818571D02*
X122633390Y-61913809D01*
X122633390Y-61913809D02*
X122633390Y-62104285D01*
X122633390Y-62104285D02*
X122681009Y-62199523D01*
X122681009Y-62199523D02*
X122728628Y-62247142D01*
X122728628Y-62247142D02*
X122823866Y-62294761D01*
X122823866Y-62294761D02*
X123014342Y-62294761D01*
X123014342Y-62294761D02*
X123109580Y-62247142D01*
X123109580Y-62247142D02*
X123157200Y-62199523D01*
X123157200Y-62199523D02*
X123204819Y-62104285D01*
X123204819Y-62104285D02*
X123204819Y-61913809D01*
X123204819Y-61913809D02*
X123157200Y-61818571D01*
X123157200Y-61818571D02*
X123109580Y-61770952D01*
X123109580Y-61770952D02*
X123014342Y-61723333D01*
X123014342Y-61723333D02*
X122823866Y-61723333D01*
X122823866Y-61723333D02*
X122728628Y-61770952D01*
X122728628Y-61770952D02*
X122681009Y-61818571D01*
X122681009Y-61818571D02*
X122633390Y-61913809D01*
X146436666Y-65084819D02*
X146436666Y-65799104D01*
X146436666Y-65799104D02*
X146389047Y-65941961D01*
X146389047Y-65941961D02*
X146293809Y-66037200D01*
X146293809Y-66037200D02*
X146150952Y-66084819D01*
X146150952Y-66084819D02*
X146055714Y-66084819D01*
X146960476Y-66084819D02*
X147150952Y-66084819D01*
X147150952Y-66084819D02*
X147246190Y-66037200D01*
X147246190Y-66037200D02*
X147293809Y-65989580D01*
X147293809Y-65989580D02*
X147389047Y-65846723D01*
X147389047Y-65846723D02*
X147436666Y-65656247D01*
X147436666Y-65656247D02*
X147436666Y-65275295D01*
X147436666Y-65275295D02*
X147389047Y-65180057D01*
X147389047Y-65180057D02*
X147341428Y-65132438D01*
X147341428Y-65132438D02*
X147246190Y-65084819D01*
X147246190Y-65084819D02*
X147055714Y-65084819D01*
X147055714Y-65084819D02*
X146960476Y-65132438D01*
X146960476Y-65132438D02*
X146912857Y-65180057D01*
X146912857Y-65180057D02*
X146865238Y-65275295D01*
X146865238Y-65275295D02*
X146865238Y-65513390D01*
X146865238Y-65513390D02*
X146912857Y-65608628D01*
X146912857Y-65608628D02*
X146960476Y-65656247D01*
X146960476Y-65656247D02*
X147055714Y-65703866D01*
X147055714Y-65703866D02*
X147246190Y-65703866D01*
X147246190Y-65703866D02*
X147341428Y-65656247D01*
X147341428Y-65656247D02*
X147389047Y-65608628D01*
X147389047Y-65608628D02*
X147436666Y-65513390D01*
X145711905Y-68234819D02*
X145711905Y-67234819D01*
X145711905Y-67234819D02*
X145950000Y-67234819D01*
X145950000Y-67234819D02*
X146092857Y-67282438D01*
X146092857Y-67282438D02*
X146188095Y-67377676D01*
X146188095Y-67377676D02*
X146235714Y-67472914D01*
X146235714Y-67472914D02*
X146283333Y-67663390D01*
X146283333Y-67663390D02*
X146283333Y-67806247D01*
X146283333Y-67806247D02*
X146235714Y-67996723D01*
X146235714Y-67996723D02*
X146188095Y-68091961D01*
X146188095Y-68091961D02*
X146092857Y-68187200D01*
X146092857Y-68187200D02*
X145950000Y-68234819D01*
X145950000Y-68234819D02*
X145711905Y-68234819D01*
X147235714Y-68234819D02*
X146664286Y-68234819D01*
X146950000Y-68234819D02*
X146950000Y-67234819D01*
X146950000Y-67234819D02*
X146854762Y-67377676D01*
X146854762Y-67377676D02*
X146759524Y-67472914D01*
X146759524Y-67472914D02*
X146664286Y-67520533D01*
X124984819Y-79428094D02*
X123984819Y-79428094D01*
X123984819Y-79428094D02*
X123984819Y-79189999D01*
X123984819Y-79189999D02*
X124032438Y-79047142D01*
X124032438Y-79047142D02*
X124127676Y-78951904D01*
X124127676Y-78951904D02*
X124222914Y-78904285D01*
X124222914Y-78904285D02*
X124413390Y-78856666D01*
X124413390Y-78856666D02*
X124556247Y-78856666D01*
X124556247Y-78856666D02*
X124746723Y-78904285D01*
X124746723Y-78904285D02*
X124841961Y-78951904D01*
X124841961Y-78951904D02*
X124937200Y-79047142D01*
X124937200Y-79047142D02*
X124984819Y-79189999D01*
X124984819Y-79189999D02*
X124984819Y-79428094D01*
X124318152Y-77999523D02*
X124984819Y-77999523D01*
X123937200Y-78237618D02*
X124651485Y-78475713D01*
X124651485Y-78475713D02*
X124651485Y-77856666D01*
X166499819Y-87403333D02*
X167214104Y-87403333D01*
X167214104Y-87403333D02*
X167356961Y-87450952D01*
X167356961Y-87450952D02*
X167452200Y-87546190D01*
X167452200Y-87546190D02*
X167499819Y-87689047D01*
X167499819Y-87689047D02*
X167499819Y-87784285D01*
X166499819Y-87022380D02*
X166499819Y-86403333D01*
X166499819Y-86403333D02*
X166880771Y-86736666D01*
X166880771Y-86736666D02*
X166880771Y-86593809D01*
X166880771Y-86593809D02*
X166928390Y-86498571D01*
X166928390Y-86498571D02*
X166976009Y-86450952D01*
X166976009Y-86450952D02*
X167071247Y-86403333D01*
X167071247Y-86403333D02*
X167309342Y-86403333D01*
X167309342Y-86403333D02*
X167404580Y-86450952D01*
X167404580Y-86450952D02*
X167452200Y-86498571D01*
X167452200Y-86498571D02*
X167499819Y-86593809D01*
X167499819Y-86593809D02*
X167499819Y-86879523D01*
X167499819Y-86879523D02*
X167452200Y-86974761D01*
X167452200Y-86974761D02*
X167404580Y-87022380D01*
X122114819Y-113233333D02*
X122829104Y-113233333D01*
X122829104Y-113233333D02*
X122971961Y-113280952D01*
X122971961Y-113280952D02*
X123067200Y-113376190D01*
X123067200Y-113376190D02*
X123114819Y-113519047D01*
X123114819Y-113519047D02*
X123114819Y-113614285D01*
X122114819Y-112852380D02*
X122114819Y-112185714D01*
X122114819Y-112185714D02*
X123114819Y-112614285D01*
X166180476Y-68004819D02*
X166180476Y-67004819D01*
X166180476Y-67004819D02*
X166561428Y-67004819D01*
X166561428Y-67004819D02*
X166656666Y-67052438D01*
X166656666Y-67052438D02*
X166704285Y-67100057D01*
X166704285Y-67100057D02*
X166751904Y-67195295D01*
X166751904Y-67195295D02*
X166751904Y-67338152D01*
X166751904Y-67338152D02*
X166704285Y-67433390D01*
X166704285Y-67433390D02*
X166656666Y-67481009D01*
X166656666Y-67481009D02*
X166561428Y-67528628D01*
X166561428Y-67528628D02*
X166180476Y-67528628D01*
X167370952Y-67004819D02*
X167561428Y-67004819D01*
X167561428Y-67004819D02*
X167656666Y-67052438D01*
X167656666Y-67052438D02*
X167751904Y-67147676D01*
X167751904Y-67147676D02*
X167799523Y-67338152D01*
X167799523Y-67338152D02*
X167799523Y-67671485D01*
X167799523Y-67671485D02*
X167751904Y-67861961D01*
X167751904Y-67861961D02*
X167656666Y-67957200D01*
X167656666Y-67957200D02*
X167561428Y-68004819D01*
X167561428Y-68004819D02*
X167370952Y-68004819D01*
X167370952Y-68004819D02*
X167275714Y-67957200D01*
X167275714Y-67957200D02*
X167180476Y-67861961D01*
X167180476Y-67861961D02*
X167132857Y-67671485D01*
X167132857Y-67671485D02*
X167132857Y-67338152D01*
X167132857Y-67338152D02*
X167180476Y-67147676D01*
X167180476Y-67147676D02*
X167275714Y-67052438D01*
X167275714Y-67052438D02*
X167370952Y-67004819D01*
X168132857Y-67004819D02*
X168370952Y-68004819D01*
X168370952Y-68004819D02*
X168561428Y-67290533D01*
X168561428Y-67290533D02*
X168751904Y-68004819D01*
X168751904Y-68004819D02*
X168990000Y-67004819D01*
X169370952Y-67481009D02*
X169704285Y-67481009D01*
X169847142Y-68004819D02*
X169370952Y-68004819D01*
X169370952Y-68004819D02*
X169370952Y-67004819D01*
X169370952Y-67004819D02*
X169847142Y-67004819D01*
X170847142Y-68004819D02*
X170513809Y-67528628D01*
X170275714Y-68004819D02*
X170275714Y-67004819D01*
X170275714Y-67004819D02*
X170656666Y-67004819D01*
X170656666Y-67004819D02*
X170751904Y-67052438D01*
X170751904Y-67052438D02*
X170799523Y-67100057D01*
X170799523Y-67100057D02*
X170847142Y-67195295D01*
X170847142Y-67195295D02*
X170847142Y-67338152D01*
X170847142Y-67338152D02*
X170799523Y-67433390D01*
X170799523Y-67433390D02*
X170751904Y-67481009D01*
X170751904Y-67481009D02*
X170656666Y-67528628D01*
X170656666Y-67528628D02*
X170275714Y-67528628D01*
X167068095Y-58804819D02*
X167068095Y-57804819D01*
X167068095Y-58281009D02*
X167639523Y-58281009D01*
X167639523Y-58804819D02*
X167639523Y-57804819D01*
X168068095Y-57900057D02*
X168115714Y-57852438D01*
X168115714Y-57852438D02*
X168210952Y-57804819D01*
X168210952Y-57804819D02*
X168449047Y-57804819D01*
X168449047Y-57804819D02*
X168544285Y-57852438D01*
X168544285Y-57852438D02*
X168591904Y-57900057D01*
X168591904Y-57900057D02*
X168639523Y-57995295D01*
X168639523Y-57995295D02*
X168639523Y-58090533D01*
X168639523Y-58090533D02*
X168591904Y-58233390D01*
X168591904Y-58233390D02*
X168020476Y-58804819D01*
X168020476Y-58804819D02*
X168639523Y-58804819D01*
X161097142Y-96674819D02*
X160763809Y-96198628D01*
X160525714Y-96674819D02*
X160525714Y-95674819D01*
X160525714Y-95674819D02*
X160906666Y-95674819D01*
X160906666Y-95674819D02*
X161001904Y-95722438D01*
X161001904Y-95722438D02*
X161049523Y-95770057D01*
X161049523Y-95770057D02*
X161097142Y-95865295D01*
X161097142Y-95865295D02*
X161097142Y-96008152D01*
X161097142Y-96008152D02*
X161049523Y-96103390D01*
X161049523Y-96103390D02*
X161001904Y-96151009D01*
X161001904Y-96151009D02*
X160906666Y-96198628D01*
X160906666Y-96198628D02*
X160525714Y-96198628D01*
X162049523Y-96674819D02*
X161478095Y-96674819D01*
X161763809Y-96674819D02*
X161763809Y-95674819D01*
X161763809Y-95674819D02*
X161668571Y-95817676D01*
X161668571Y-95817676D02*
X161573333Y-95912914D01*
X161573333Y-95912914D02*
X161478095Y-95960533D01*
X162668571Y-95674819D02*
X162763809Y-95674819D01*
X162763809Y-95674819D02*
X162859047Y-95722438D01*
X162859047Y-95722438D02*
X162906666Y-95770057D01*
X162906666Y-95770057D02*
X162954285Y-95865295D01*
X162954285Y-95865295D02*
X163001904Y-96055771D01*
X163001904Y-96055771D02*
X163001904Y-96293866D01*
X163001904Y-96293866D02*
X162954285Y-96484342D01*
X162954285Y-96484342D02*
X162906666Y-96579580D01*
X162906666Y-96579580D02*
X162859047Y-96627200D01*
X162859047Y-96627200D02*
X162763809Y-96674819D01*
X162763809Y-96674819D02*
X162668571Y-96674819D01*
X162668571Y-96674819D02*
X162573333Y-96627200D01*
X162573333Y-96627200D02*
X162525714Y-96579580D01*
X162525714Y-96579580D02*
X162478095Y-96484342D01*
X162478095Y-96484342D02*
X162430476Y-96293866D01*
X162430476Y-96293866D02*
X162430476Y-96055771D01*
X162430476Y-96055771D02*
X162478095Y-95865295D01*
X162478095Y-95865295D02*
X162525714Y-95770057D01*
X162525714Y-95770057D02*
X162573333Y-95722438D01*
X162573333Y-95722438D02*
X162668571Y-95674819D01*
D12*
%TO.C,R15*%
X132852936Y-71185000D02*
X133307064Y-71185000D01*
X132852936Y-72655000D02*
X133307064Y-72655000D01*
%TO.C,Q1*%
X133157500Y-82850000D02*
X132507500Y-82850000D01*
X133157500Y-82850000D02*
X133807500Y-82850000D01*
X133157500Y-85970000D02*
X132507500Y-85970000D01*
X133157500Y-85970000D02*
X133807500Y-85970000D01*
X134560000Y-86250000D02*
X134080000Y-86250000D01*
X134320000Y-85920000D01*
X134560000Y-86250000D01*
G36*
X134560000Y-86250000D02*
G01*
X134080000Y-86250000D01*
X134320000Y-85920000D01*
X134560000Y-86250000D01*
G37*
%TO.C,C2*%
X146070000Y-72550000D02*
X144541000Y-72550000D01*
X146070000Y-72590000D02*
X144545000Y-72590000D01*
X146070000Y-72630000D02*
X144549000Y-72630000D01*
X146070000Y-72670000D02*
X144554000Y-72670000D01*
X146070000Y-72710000D02*
X144560000Y-72710000D01*
X146070000Y-72750000D02*
X144567000Y-72750000D01*
X146070000Y-72790000D02*
X144574000Y-72790000D01*
X146070000Y-72830000D02*
X144582000Y-72830000D01*
X146070000Y-72870000D02*
X144590000Y-72870000D01*
X146070000Y-72910000D02*
X144599000Y-72910000D01*
X146070000Y-72950000D02*
X144609000Y-72950000D01*
X146070000Y-72990000D02*
X144619000Y-72990000D01*
X146070000Y-73031000D02*
X144630000Y-73031000D01*
X146070000Y-73071000D02*
X144642000Y-73071000D01*
X146070000Y-73111000D02*
X144655000Y-73111000D01*
X146070000Y-73151000D02*
X144668000Y-73151000D01*
X146070000Y-73191000D02*
X144682000Y-73191000D01*
X146070000Y-73231000D02*
X144696000Y-73231000D01*
X146070000Y-73271000D02*
X144712000Y-73271000D01*
X146070000Y-73311000D02*
X144728000Y-73311000D01*
X146070000Y-73351000D02*
X144745000Y-73351000D01*
X146070000Y-73391000D02*
X144762000Y-73391000D01*
X146070000Y-73431000D02*
X144781000Y-73431000D01*
X146070000Y-73471000D02*
X144800000Y-73471000D01*
X146070000Y-73511000D02*
X144820000Y-73511000D01*
X146070000Y-73551000D02*
X144842000Y-73551000D01*
X146070000Y-73591000D02*
X144863000Y-73591000D01*
X146070000Y-73631000D02*
X144886000Y-73631000D01*
X146070000Y-73671000D02*
X144910000Y-73671000D01*
X146070000Y-73711000D02*
X144935000Y-73711000D01*
X146070000Y-73751000D02*
X144961000Y-73751000D01*
X146070000Y-73791000D02*
X144988000Y-73791000D01*
X146070000Y-73831000D02*
X145015000Y-73831000D01*
X146070000Y-73871000D02*
X145045000Y-73871000D01*
X146070000Y-73911000D02*
X145075000Y-73911000D01*
X146070000Y-73951000D02*
X145106000Y-73951000D01*
X146070000Y-73991000D02*
X145139000Y-73991000D01*
X146070000Y-74031000D02*
X145173000Y-74031000D01*
X146070000Y-74071000D02*
X145209000Y-74071000D01*
X146070000Y-74111000D02*
X145246000Y-74111000D01*
X146070000Y-74151000D02*
X145284000Y-74151000D01*
X146070000Y-74191000D02*
X145325000Y-74191000D01*
X146070000Y-74231000D02*
X145367000Y-74231000D01*
X146070000Y-74271000D02*
X145411000Y-74271000D01*
X146070000Y-74311000D02*
X145457000Y-74311000D01*
X146070000Y-74351000D02*
X145505000Y-74351000D01*
X146070000Y-74391000D02*
X145556000Y-74391000D01*
X146070000Y-74431000D02*
X145610000Y-74431000D01*
X146070000Y-74471000D02*
X145667000Y-74471000D01*
X146070000Y-74511000D02*
X145727000Y-74511000D01*
X146070000Y-74551000D02*
X145791000Y-74551000D01*
X146070000Y-74591000D02*
X145859000Y-74591000D01*
X147394000Y-74911000D02*
X146826000Y-74911000D01*
X147628000Y-74871000D02*
X146592000Y-74871000D01*
X147787000Y-74831000D02*
X146433000Y-74831000D01*
X147915000Y-74791000D02*
X146305000Y-74791000D01*
X148025000Y-74751000D02*
X146195000Y-74751000D01*
X148121000Y-74711000D02*
X146099000Y-74711000D01*
X148208000Y-74671000D02*
X146012000Y-74671000D01*
X148288000Y-74631000D02*
X145932000Y-74631000D01*
X148361000Y-74591000D02*
X148150000Y-74591000D01*
X148429000Y-74551000D02*
X148150000Y-74551000D01*
X148493000Y-74511000D02*
X148150000Y-74511000D01*
X148553000Y-74471000D02*
X148150000Y-74471000D01*
X148585000Y-69505225D02*
X148585000Y-70005225D01*
X148610000Y-74431000D02*
X148150000Y-74431000D01*
X148664000Y-74391000D02*
X148150000Y-74391000D01*
X148715000Y-74351000D02*
X148150000Y-74351000D01*
X148763000Y-74311000D02*
X148150000Y-74311000D01*
X148809000Y-74271000D02*
X148150000Y-74271000D01*
X148835000Y-69755225D02*
X148335000Y-69755225D01*
X148853000Y-74231000D02*
X148150000Y-74231000D01*
X148895000Y-74191000D02*
X148150000Y-74191000D01*
X148936000Y-74151000D02*
X148150000Y-74151000D01*
X148974000Y-74111000D02*
X148150000Y-74111000D01*
X149011000Y-74071000D02*
X148150000Y-74071000D01*
X149047000Y-74031000D02*
X148150000Y-74031000D01*
X149081000Y-73991000D02*
X148150000Y-73991000D01*
X149114000Y-73951000D02*
X148150000Y-73951000D01*
X149145000Y-73911000D02*
X148150000Y-73911000D01*
X149175000Y-73871000D02*
X148150000Y-73871000D01*
X149205000Y-73831000D02*
X148150000Y-73831000D01*
X149232000Y-73791000D02*
X148150000Y-73791000D01*
X149259000Y-73751000D02*
X148150000Y-73751000D01*
X149285000Y-73711000D02*
X148150000Y-73711000D01*
X149310000Y-73671000D02*
X148150000Y-73671000D01*
X149334000Y-73631000D02*
X148150000Y-73631000D01*
X149357000Y-73591000D02*
X148150000Y-73591000D01*
X149378000Y-73551000D02*
X148150000Y-73551000D01*
X149400000Y-73511000D02*
X148150000Y-73511000D01*
X149420000Y-73471000D02*
X148150000Y-73471000D01*
X149439000Y-73431000D02*
X148150000Y-73431000D01*
X149458000Y-73391000D02*
X148150000Y-73391000D01*
X149475000Y-73351000D02*
X148150000Y-73351000D01*
X149492000Y-73311000D02*
X148150000Y-73311000D01*
X149508000Y-73271000D02*
X148150000Y-73271000D01*
X149524000Y-73231000D02*
X148150000Y-73231000D01*
X149538000Y-73191000D02*
X148150000Y-73191000D01*
X149552000Y-73151000D02*
X148150000Y-73151000D01*
X149565000Y-73111000D02*
X148150000Y-73111000D01*
X149578000Y-73071000D02*
X148150000Y-73071000D01*
X149590000Y-73031000D02*
X148150000Y-73031000D01*
X149601000Y-72990000D02*
X148150000Y-72990000D01*
X149611000Y-72950000D02*
X148150000Y-72950000D01*
X149621000Y-72910000D02*
X148150000Y-72910000D01*
X149630000Y-72870000D02*
X148150000Y-72870000D01*
X149638000Y-72830000D02*
X148150000Y-72830000D01*
X149646000Y-72790000D02*
X148150000Y-72790000D01*
X149653000Y-72750000D02*
X148150000Y-72750000D01*
X149660000Y-72710000D02*
X148150000Y-72710000D01*
X149666000Y-72670000D02*
X148150000Y-72670000D01*
X149671000Y-72630000D02*
X148150000Y-72630000D01*
X149675000Y-72590000D02*
X148150000Y-72590000D01*
X149679000Y-72550000D02*
X148150000Y-72550000D01*
X149683000Y-72510000D02*
X144537000Y-72510000D01*
X149686000Y-72470000D02*
X144534000Y-72470000D01*
X149688000Y-72430000D02*
X144532000Y-72430000D01*
X149689000Y-72390000D02*
X144531000Y-72390000D01*
X149690000Y-72310000D02*
X144530000Y-72310000D01*
X149690000Y-72350000D02*
X144530000Y-72350000D01*
X149730000Y-72310000D02*
G75*
G02*
X144490000Y-72310000I-2620000J0D01*
G01*
X144490000Y-72310000D02*
G75*
G02*
X149730000Y-72310000I2620000J0D01*
G01*
%TO.C,R3*%
X128635000Y-101782936D02*
X128635000Y-102237064D01*
X130105000Y-101782936D02*
X130105000Y-102237064D01*
%TO.C,R5*%
X161825436Y-77650000D02*
X162279564Y-77650000D01*
X161825436Y-79120000D02*
X162279564Y-79120000D01*
%TO.C,L1*%
X131515000Y-74360000D02*
X131515000Y-76280000D01*
X131515000Y-76280000D02*
X134200000Y-76280000D01*
X134200000Y-74360000D02*
X131515000Y-74360000D01*
%TO.C,J4*%
X135020000Y-56900000D02*
X135020000Y-64520000D01*
X135020000Y-64520000D02*
X145180000Y-64520000D01*
X145180000Y-56900000D02*
X135020000Y-56900000D01*
X145180000Y-63250000D02*
X135020000Y-63250000D01*
X145180000Y-64520000D02*
X145180000Y-56900000D01*
D13*
%TO.C,G\u002A\u002A\u002A*%
G36*
X122879726Y-91350000D02*
G01*
X122879726Y-91463082D01*
X122775343Y-91463082D01*
X122670959Y-91463082D01*
X122670959Y-91350000D01*
X122670959Y-91236918D01*
X122775343Y-91236918D01*
X122879726Y-91236918D01*
X122879726Y-91350000D01*
G37*
G36*
X123558220Y-90358356D02*
G01*
X123558220Y-90801986D01*
X123332055Y-90801986D01*
X123105891Y-90801986D01*
X123105891Y-90358356D01*
X123105891Y-89914726D01*
X123332055Y-89914726D01*
X123558220Y-89914726D01*
X123558220Y-90358356D01*
G37*
G36*
X123993151Y-91019452D02*
G01*
X123993151Y-91236918D01*
X123775685Y-91236918D01*
X123558220Y-91236918D01*
X123558220Y-91019452D01*
X123558220Y-90801986D01*
X123775685Y-90801986D01*
X123993151Y-90801986D01*
X123993151Y-91019452D01*
G37*
G36*
X128881781Y-88348973D02*
G01*
X128881781Y-88575137D01*
X128664315Y-88575137D01*
X128446850Y-88575137D01*
X128446850Y-88348973D01*
X128446850Y-88122808D01*
X128664315Y-88122808D01*
X128881781Y-88122808D01*
X128881781Y-88348973D01*
G37*
G36*
X129334110Y-89018767D02*
G01*
X129334110Y-89462397D01*
X129107946Y-89462397D01*
X128881781Y-89462397D01*
X128881781Y-89018767D01*
X128881781Y-88575137D01*
X129107946Y-88575137D01*
X129334110Y-88575137D01*
X129334110Y-89018767D01*
G37*
G36*
X129769041Y-89679863D02*
G01*
X129769041Y-89897329D01*
X129551576Y-89897329D01*
X129334110Y-89897329D01*
X129334110Y-89679863D01*
X129334110Y-89462397D01*
X129551576Y-89462397D01*
X129769041Y-89462397D01*
X129769041Y-89679863D01*
G37*
G36*
X129334110Y-90358356D02*
G01*
X129334110Y-90801986D01*
X129107946Y-90801986D01*
X128881781Y-90801986D01*
X128881781Y-91019452D01*
X128881781Y-91236918D01*
X128664315Y-91236918D01*
X128446850Y-91236918D01*
X128446850Y-91019452D01*
X128446850Y-90801986D01*
X128664315Y-90801986D01*
X128881781Y-90801986D01*
X128881781Y-90358356D01*
X128881781Y-89914726D01*
X129107946Y-89914726D01*
X129334110Y-89914726D01*
X129334110Y-90358356D01*
G37*
G36*
X123993151Y-88348973D02*
G01*
X123993151Y-88575137D01*
X123775685Y-88575137D01*
X123558220Y-88575137D01*
X123558220Y-89018767D01*
X123558220Y-89462397D01*
X123332055Y-89462397D01*
X123105891Y-89462397D01*
X123105891Y-89679863D01*
X123105891Y-89897329D01*
X122888425Y-89897329D01*
X122670959Y-89897329D01*
X122670959Y-89679863D01*
X122670959Y-89462397D01*
X122888425Y-89462397D01*
X123105891Y-89462397D01*
X123105891Y-89018767D01*
X123105891Y-88575137D01*
X123332055Y-88575137D01*
X123558220Y-88575137D01*
X123558220Y-88348973D01*
X123558220Y-88122808D01*
X123775685Y-88122808D01*
X123993151Y-88122808D01*
X123993151Y-88348973D01*
G37*
G36*
X126654932Y-88462055D02*
G01*
X126654932Y-88575137D01*
X126881096Y-88575137D01*
X127107261Y-88575137D01*
X127107261Y-88688219D01*
X127107261Y-88801302D01*
X127220343Y-88801302D01*
X127333425Y-88801302D01*
X127333425Y-88914384D01*
X127333425Y-89027466D01*
X127446507Y-89027466D01*
X127559589Y-89027466D01*
X127559589Y-89244932D01*
X127559589Y-89462397D01*
X127663973Y-89462397D01*
X127768357Y-89462397D01*
X127768357Y-90575822D01*
X127768357Y-91689247D01*
X127881439Y-91689247D01*
X127994521Y-91689247D01*
X127994521Y-91906713D01*
X127994521Y-92124178D01*
X127777055Y-92124178D01*
X127559589Y-92124178D01*
X127559589Y-92350343D01*
X127559589Y-92576507D01*
X127663973Y-92576507D01*
X127768357Y-92576507D01*
X127768357Y-92689589D01*
X127768357Y-92802671D01*
X127994521Y-92802671D01*
X128220685Y-92802671D01*
X128220685Y-92689589D01*
X128220685Y-92576507D01*
X128333767Y-92576507D01*
X128446850Y-92576507D01*
X128446850Y-92350343D01*
X128446850Y-92124178D01*
X128559932Y-92124178D01*
X128673014Y-92124178D01*
X128673014Y-91906713D01*
X128673014Y-91689247D01*
X128777398Y-91689247D01*
X128881781Y-91689247D01*
X128881781Y-91576165D01*
X128881781Y-91463082D01*
X129221028Y-91463082D01*
X129560274Y-91463082D01*
X129560274Y-91350000D01*
X129560274Y-91236918D01*
X129664658Y-91236918D01*
X129769041Y-91236918D01*
X129769041Y-91350000D01*
X129769041Y-91463082D01*
X129664658Y-91463082D01*
X129560274Y-91463082D01*
X129560274Y-91576165D01*
X129560274Y-91689247D01*
X129334110Y-91689247D01*
X129107946Y-91689247D01*
X129107946Y-91906713D01*
X129107946Y-92124178D01*
X128994863Y-92124178D01*
X128881781Y-92124178D01*
X128881781Y-92350343D01*
X128881781Y-92576507D01*
X128768699Y-92576507D01*
X128655617Y-92576507D01*
X128655617Y-92793973D01*
X128655617Y-93011439D01*
X128551233Y-93011439D01*
X128446850Y-93011439D01*
X128446850Y-93124521D01*
X128446850Y-93237603D01*
X128117132Y-93237603D01*
X127787414Y-93237603D01*
X127782235Y-93128870D01*
X127777055Y-93020137D01*
X127668322Y-93014958D01*
X127559589Y-93009778D01*
X127559589Y-92906225D01*
X127559589Y-92802671D01*
X127446507Y-92802671D01*
X127333425Y-92802671D01*
X127333425Y-92689589D01*
X127333425Y-92576507D01*
X127220343Y-92576507D01*
X127107261Y-92576507D01*
X127107261Y-92350343D01*
X127107261Y-92124178D01*
X126994178Y-92124178D01*
X126881096Y-92124178D01*
X126881096Y-93124521D01*
X126881096Y-94124863D01*
X126663631Y-94124863D01*
X126446165Y-94124863D01*
X126446165Y-93124521D01*
X126446165Y-92124178D01*
X126220000Y-92124178D01*
X125993836Y-92124178D01*
X125993836Y-93350685D01*
X125993836Y-94577192D01*
X125776370Y-94577192D01*
X125558904Y-94577192D01*
X125558904Y-93350685D01*
X125558904Y-92124178D01*
X125445822Y-92124178D01*
X125332740Y-92124178D01*
X125332740Y-92350343D01*
X125332740Y-92576507D01*
X125219658Y-92576507D01*
X125106576Y-92576507D01*
X125106576Y-92689589D01*
X125106576Y-92802671D01*
X124993494Y-92802671D01*
X124880411Y-92802671D01*
X124880411Y-92906225D01*
X124880411Y-93009778D01*
X124771678Y-93014958D01*
X124662946Y-93020137D01*
X124657766Y-93128870D01*
X124652587Y-93237603D01*
X124322869Y-93237603D01*
X123993151Y-93237603D01*
X123993151Y-93124521D01*
X123993151Y-93011439D01*
X123888767Y-93011439D01*
X123784384Y-93011439D01*
X123784384Y-92793973D01*
X123784384Y-92576507D01*
X123671302Y-92576507D01*
X123558220Y-92576507D01*
X123558220Y-92350343D01*
X123558220Y-92124178D01*
X123445137Y-92124178D01*
X123332055Y-92124178D01*
X123332055Y-91906713D01*
X123332055Y-91689247D01*
X123105891Y-91689247D01*
X122879726Y-91689247D01*
X122879726Y-91576165D01*
X122879726Y-91463082D01*
X123218973Y-91463082D01*
X123558220Y-91463082D01*
X123558220Y-91576165D01*
X123558220Y-91689247D01*
X123662603Y-91689247D01*
X123766987Y-91689247D01*
X123766987Y-91906713D01*
X123766987Y-92124178D01*
X123880069Y-92124178D01*
X123993151Y-92124178D01*
X123993151Y-92350343D01*
X123993151Y-92576507D01*
X124106233Y-92576507D01*
X124219315Y-92576507D01*
X124219315Y-92689589D01*
X124219315Y-92802671D01*
X124445480Y-92802671D01*
X124671644Y-92802671D01*
X124671644Y-92689589D01*
X124671644Y-92576507D01*
X124776028Y-92576507D01*
X124880411Y-92576507D01*
X124880411Y-92350343D01*
X124880411Y-92124178D01*
X124662946Y-92124178D01*
X124445480Y-92124178D01*
X124445480Y-91906713D01*
X124445480Y-91689247D01*
X124558562Y-91689247D01*
X124671644Y-91689247D01*
X124671644Y-91010754D01*
X125993836Y-91010754D01*
X126220000Y-91010754D01*
X126446165Y-91010754D01*
X126446165Y-90906370D01*
X126446165Y-90801986D01*
X126220000Y-90801986D01*
X125993836Y-90801986D01*
X125993836Y-90906370D01*
X125993836Y-91010754D01*
X124671644Y-91010754D01*
X124671644Y-90906370D01*
X124671644Y-90575822D01*
X124671644Y-90132192D01*
X125106576Y-90132192D01*
X125106576Y-90575822D01*
X125219658Y-90575822D01*
X125332740Y-90575822D01*
X125332740Y-90462740D01*
X125332740Y-90349658D01*
X125558904Y-90349658D01*
X125785069Y-90349658D01*
X125785069Y-90462740D01*
X125785069Y-90575822D01*
X125889452Y-90575822D01*
X125993836Y-90575822D01*
X125993836Y-90132192D01*
X126446165Y-90132192D01*
X126446165Y-90575822D01*
X126550548Y-90575822D01*
X126654932Y-90575822D01*
X126654932Y-90462740D01*
X126654932Y-90349658D01*
X126881096Y-90349658D01*
X127107261Y-90349658D01*
X127107261Y-90462740D01*
X127107261Y-90575822D01*
X127220343Y-90575822D01*
X127333425Y-90575822D01*
X127333425Y-90132192D01*
X127333425Y-89688562D01*
X127220343Y-89688562D01*
X127107261Y-89688562D01*
X127107261Y-89575480D01*
X127107261Y-89462397D01*
X126889795Y-89462397D01*
X126672329Y-89462397D01*
X126672329Y-89575480D01*
X126672329Y-89688562D01*
X126559247Y-89688562D01*
X126446165Y-89688562D01*
X126446165Y-90132192D01*
X125993836Y-90132192D01*
X125993836Y-89688562D01*
X125880754Y-89688562D01*
X125767672Y-89688562D01*
X125767672Y-89575480D01*
X125767672Y-89462397D01*
X125550206Y-89462397D01*
X125332740Y-89462397D01*
X125332740Y-89575480D01*
X125332740Y-89688562D01*
X125219658Y-89688562D01*
X125106576Y-89688562D01*
X125106576Y-90132192D01*
X124671644Y-90132192D01*
X124671644Y-89688562D01*
X124671644Y-89462397D01*
X124776028Y-89462397D01*
X124880411Y-89462397D01*
X124880411Y-89244932D01*
X124880411Y-89027466D01*
X124993494Y-89027466D01*
X125106576Y-89027466D01*
X125106576Y-88914384D01*
X125106576Y-88801302D01*
X125219658Y-88801302D01*
X125332740Y-88801302D01*
X125332740Y-88688219D01*
X125332740Y-88575137D01*
X125558904Y-88575137D01*
X125785069Y-88575137D01*
X125785069Y-88462055D01*
X125785069Y-88348973D01*
X126220000Y-88348973D01*
X126654932Y-88348973D01*
X126654932Y-88462055D01*
G37*
D12*
%TO.C,R6*%
X161785436Y-74400000D02*
X162239564Y-74400000D01*
X161785436Y-75870000D02*
X162239564Y-75870000D01*
%TO.C,RX1*%
X160717500Y-104660000D02*
X163402500Y-104660000D01*
X163402500Y-102740000D02*
X160717500Y-102740000D01*
X163402500Y-104660000D02*
X163402500Y-102740000D01*
%TO.C,U1*%
X133040000Y-95370000D02*
X135160000Y-95370000D01*
X133040000Y-95990000D02*
X133040000Y-95370000D01*
X133040000Y-119610000D02*
X133040000Y-111990000D01*
X147160000Y-95370000D02*
X149280000Y-95370000D01*
X149280000Y-95370000D02*
X149280000Y-95990000D01*
X149280000Y-111990000D02*
X149280000Y-119610000D01*
X149280000Y-119610000D02*
X133040000Y-119610000D01*
X149950000Y-112326000D02*
X149470000Y-112326000D01*
X149710000Y-111990000D01*
X149950000Y-112326000D01*
G36*
X149950000Y-112326000D02*
G01*
X149470000Y-112326000D01*
X149710000Y-111990000D01*
X149950000Y-112326000D01*
G37*
%TO.C,C4*%
X150455000Y-74461252D02*
X150455000Y-73938748D01*
X151925000Y-74461252D02*
X151925000Y-73938748D01*
%TO.C,SW1*%
X127350000Y-110240000D02*
X127350000Y-116640000D01*
X127350000Y-116640000D02*
X128550000Y-116640000D01*
X128550000Y-110240000D02*
X127350000Y-110240000D01*
X130150000Y-116640000D02*
X131350000Y-116640000D01*
X131350000Y-110240000D02*
X130150000Y-110240000D01*
X131350000Y-116640000D02*
X131350000Y-110240000D01*
%TO.C,C3*%
X139410000Y-79050000D02*
X138170000Y-79050000D01*
X139410000Y-79090000D02*
X138170000Y-79090000D01*
X139410000Y-79130000D02*
X138171000Y-79130000D01*
X139410000Y-79170000D02*
X138173000Y-79170000D01*
X139410000Y-79210000D02*
X138176000Y-79210000D01*
X139410000Y-79250000D02*
X138179000Y-79250000D01*
X139410000Y-79290000D02*
X138183000Y-79290000D01*
X139410000Y-79330000D02*
X138188000Y-79330000D01*
X139410000Y-79370000D02*
X138194000Y-79370000D01*
X139410000Y-79410000D02*
X138200000Y-79410000D01*
X139410000Y-79450000D02*
X138208000Y-79450000D01*
X139410000Y-79490000D02*
X138216000Y-79490000D01*
X139410000Y-79530000D02*
X138225000Y-79530000D01*
X139410000Y-79570000D02*
X138234000Y-79570000D01*
X139410000Y-79610000D02*
X138245000Y-79610000D01*
X139410000Y-79650000D02*
X138256000Y-79650000D01*
X139410000Y-79690000D02*
X138268000Y-79690000D01*
X139410000Y-79730000D02*
X138282000Y-79730000D01*
X139410000Y-79771000D02*
X138296000Y-79771000D01*
X139410000Y-79811000D02*
X138310000Y-79811000D01*
X139410000Y-79851000D02*
X138326000Y-79851000D01*
X139410000Y-79891000D02*
X138343000Y-79891000D01*
X139410000Y-79931000D02*
X138361000Y-79931000D01*
X139410000Y-79971000D02*
X138380000Y-79971000D01*
X139410000Y-80011000D02*
X138399000Y-80011000D01*
X139410000Y-80051000D02*
X138420000Y-80051000D01*
X139410000Y-80091000D02*
X138442000Y-80091000D01*
X139410000Y-80131000D02*
X138465000Y-80131000D01*
X139410000Y-80171000D02*
X138490000Y-80171000D01*
X139410000Y-80211000D02*
X138515000Y-80211000D01*
X139410000Y-80251000D02*
X138542000Y-80251000D01*
X139410000Y-80291000D02*
X138570000Y-80291000D01*
X139410000Y-80331000D02*
X138600000Y-80331000D01*
X139410000Y-80371000D02*
X138631000Y-80371000D01*
X139410000Y-80411000D02*
X138663000Y-80411000D01*
X139410000Y-80451000D02*
X138698000Y-80451000D01*
X139410000Y-80491000D02*
X138734000Y-80491000D01*
X139410000Y-80531000D02*
X138772000Y-80531000D01*
X139410000Y-80571000D02*
X138812000Y-80571000D01*
X139410000Y-80611000D02*
X138854000Y-80611000D01*
X140620000Y-81131000D02*
X139880000Y-81131000D01*
X140787000Y-81091000D02*
X139713000Y-81091000D01*
X140914000Y-81051000D02*
X139586000Y-81051000D01*
X141018000Y-81011000D02*
X139482000Y-81011000D01*
X141109000Y-80971000D02*
X139391000Y-80971000D01*
X141190000Y-80931000D02*
X139310000Y-80931000D01*
X141263000Y-80891000D02*
X139237000Y-80891000D01*
X141330000Y-80851000D02*
X139170000Y-80851000D01*
X141392000Y-80811000D02*
X139108000Y-80811000D01*
X141445000Y-76780199D02*
X141445000Y-77180199D01*
X141450000Y-80771000D02*
X139050000Y-80771000D01*
X141504000Y-80731000D02*
X138996000Y-80731000D01*
X141554000Y-80691000D02*
X138946000Y-80691000D01*
X141601000Y-80651000D02*
X138899000Y-80651000D01*
X141645000Y-76980199D02*
X141245000Y-76980199D01*
X141646000Y-80611000D02*
X141090000Y-80611000D01*
X141688000Y-80571000D02*
X141090000Y-80571000D01*
X141728000Y-80531000D02*
X141090000Y-80531000D01*
X141766000Y-80491000D02*
X141090000Y-80491000D01*
X141802000Y-80451000D02*
X141090000Y-80451000D01*
X141837000Y-80411000D02*
X141090000Y-80411000D01*
X141869000Y-80371000D02*
X141090000Y-80371000D01*
X141900000Y-80331000D02*
X141090000Y-80331000D01*
X141930000Y-80291000D02*
X141090000Y-80291000D01*
X141958000Y-80251000D02*
X141090000Y-80251000D01*
X141985000Y-80211000D02*
X141090000Y-80211000D01*
X142010000Y-80171000D02*
X141090000Y-80171000D01*
X142035000Y-80131000D02*
X141090000Y-80131000D01*
X142058000Y-80091000D02*
X141090000Y-80091000D01*
X142080000Y-80051000D02*
X141090000Y-80051000D01*
X142101000Y-80011000D02*
X141090000Y-80011000D01*
X142120000Y-79971000D02*
X141090000Y-79971000D01*
X142139000Y-79931000D02*
X141090000Y-79931000D01*
X142157000Y-79891000D02*
X141090000Y-79891000D01*
X142174000Y-79851000D02*
X141090000Y-79851000D01*
X142190000Y-79811000D02*
X141090000Y-79811000D01*
X142204000Y-79771000D02*
X141090000Y-79771000D01*
X142218000Y-79730000D02*
X141090000Y-79730000D01*
X142232000Y-79690000D02*
X141090000Y-79690000D01*
X142244000Y-79650000D02*
X141090000Y-79650000D01*
X142255000Y-79610000D02*
X141090000Y-79610000D01*
X142266000Y-79570000D02*
X141090000Y-79570000D01*
X142275000Y-79530000D02*
X141090000Y-79530000D01*
X142284000Y-79490000D02*
X141090000Y-79490000D01*
X142292000Y-79450000D02*
X141090000Y-79450000D01*
X142300000Y-79410000D02*
X141090000Y-79410000D01*
X142306000Y-79370000D02*
X141090000Y-79370000D01*
X142312000Y-79330000D02*
X141090000Y-79330000D01*
X142317000Y-79290000D02*
X141090000Y-79290000D01*
X142321000Y-79250000D02*
X141090000Y-79250000D01*
X142324000Y-79210000D02*
X141090000Y-79210000D01*
X142327000Y-79170000D02*
X141090000Y-79170000D01*
X142329000Y-79130000D02*
X141090000Y-79130000D01*
X142330000Y-79050000D02*
X141090000Y-79050000D01*
X142330000Y-79090000D02*
X141090000Y-79090000D01*
X142370000Y-79050000D02*
G75*
G02*
X138130000Y-79050000I-2120000J0D01*
G01*
X138130000Y-79050000D02*
G75*
G02*
X142370000Y-79050000I2120000J0D01*
G01*
%TO.C,U2*%
X136960000Y-68530000D02*
X138220000Y-68530000D01*
X136960000Y-72290000D02*
X136960000Y-68530000D01*
X143780000Y-68530000D02*
X142520000Y-68530000D01*
X143780000Y-72290000D02*
X143780000Y-68530000D01*
X137060000Y-73570000D02*
X136730000Y-73810000D01*
X136730000Y-73330000D01*
X137060000Y-73570000D01*
G36*
X137060000Y-73570000D02*
G01*
X136730000Y-73810000D01*
X136730000Y-73330000D01*
X137060000Y-73570000D01*
G37*
%TO.C,C1*%
X152244420Y-96490000D02*
X152525580Y-96490000D01*
X152244420Y-97510000D02*
X152525580Y-97510000D01*
%TO.C,R11*%
X158490436Y-93005000D02*
X158944564Y-93005000D01*
X158490436Y-94475000D02*
X158944564Y-94475000D01*
%TO.C,K1*%
X123277500Y-74832500D02*
X123277500Y-76432500D01*
X123277500Y-76432500D02*
X124877500Y-76432500D01*
X123477500Y-55432500D02*
X123477500Y-76232500D01*
X123477500Y-76232500D02*
X130977500Y-76232500D01*
X124877500Y-72272500D02*
X124877500Y-73542500D01*
X126052500Y-71282500D02*
X126052500Y-73182500D01*
X126052500Y-72272500D02*
X124877500Y-72272500D01*
X126052500Y-73182500D02*
X128352500Y-73182500D01*
X128352500Y-71282500D02*
X126052500Y-71282500D01*
X128352500Y-73182500D02*
X126052500Y-71282500D01*
X128352500Y-73182500D02*
X128352500Y-71282500D01*
X129027500Y-55432500D02*
X123477500Y-55432500D01*
X129577500Y-72272500D02*
X128352500Y-72272500D01*
X129577500Y-73542500D02*
X129577500Y-72272500D01*
X130977500Y-55432500D02*
X130127500Y-55432500D01*
X130977500Y-76232500D02*
X130977500Y-55432500D01*
%TO.C,R1*%
X154284564Y-106555000D02*
X153830436Y-106555000D01*
X154284564Y-108025000D02*
X153830436Y-108025000D01*
%TO.C,J2*%
X164570000Y-76340000D02*
X164570000Y-68660000D01*
X167230000Y-68660000D02*
X164570000Y-68660000D01*
X167230000Y-76340000D02*
X164570000Y-76340000D01*
X167230000Y-76340000D02*
X167230000Y-68660000D01*
X167230000Y-77610000D02*
X167230000Y-78940000D01*
X167230000Y-78940000D02*
X165900000Y-78940000D01*
%TO.C,R7*%
X137434564Y-84915000D02*
X136980436Y-84915000D01*
X137434564Y-86385000D02*
X136980436Y-86385000D01*
%TO.C,R12*%
X157707936Y-102955000D02*
X158162064Y-102955000D01*
X157707936Y-104425000D02*
X158162064Y-104425000D01*
%TO.C,Y1*%
X146145000Y-76375000D02*
X152395000Y-76375000D01*
X146145000Y-81425000D02*
X152395000Y-81425000D01*
X146145000Y-81425000D02*
G75*
G02*
X146145000Y-76375000I0J2525000D01*
G01*
X152395000Y-76375000D02*
G75*
G02*
X152395000Y-81425000I0J-2525000D01*
G01*
%TO.C,U4*%
X150680000Y-82640000D02*
X148730000Y-82640000D01*
X150680000Y-82640000D02*
X152630000Y-82640000D01*
X150680000Y-92760000D02*
X148730000Y-92760000D01*
X150680000Y-92760000D02*
X152630000Y-92760000D01*
X153620000Y-93035000D02*
X153140000Y-93035000D01*
X153380000Y-92705000D01*
X153620000Y-93035000D01*
G36*
X153620000Y-93035000D02*
G01*
X153140000Y-93035000D01*
X153380000Y-92705000D01*
X153620000Y-93035000D01*
G37*
%TO.C,R9*%
X158809564Y-83845000D02*
X158355436Y-83845000D01*
X158809564Y-85315000D02*
X158355436Y-85315000D01*
%TO.C,R2*%
X154284564Y-104275000D02*
X153830436Y-104275000D01*
X154284564Y-105745000D02*
X153830436Y-105745000D01*
%TO.C,SW2*%
X151120000Y-110300000D02*
X151120000Y-116700000D01*
X151120000Y-116700000D02*
X152320000Y-116700000D01*
X152320000Y-110300000D02*
X151120000Y-110300000D01*
X153920000Y-116700000D02*
X155120000Y-116700000D01*
X155120000Y-110300000D02*
X153920000Y-110300000D01*
X155120000Y-116700000D02*
X155120000Y-110300000D01*
%TO.C,R8*%
X158819564Y-88235000D02*
X158365436Y-88235000D01*
X158819564Y-89705000D02*
X158365436Y-89705000D01*
%TO.C,R4*%
X128615000Y-98209564D02*
X128615000Y-97755436D01*
X130085000Y-98209564D02*
X130085000Y-97755436D01*
%TO.C,D2*%
X162940000Y-69600000D02*
X157430000Y-69600000D01*
X162940000Y-72900000D02*
X157430000Y-72900000D01*
X162940000Y-72900000D02*
X162940000Y-69600000D01*
%TO.C,R14*%
X165190436Y-64985000D02*
X165644564Y-64985000D01*
X165190436Y-66455000D02*
X165644564Y-66455000D01*
%TO.C,R13*%
X157687936Y-106525000D02*
X158142064Y-106525000D01*
X157687936Y-107995000D02*
X158142064Y-107995000D01*
%TO.C,C5*%
X152815000Y-74471252D02*
X152815000Y-73948748D01*
X154285000Y-74471252D02*
X154285000Y-73948748D01*
%TO.C,D3*%
X156025000Y-73605000D02*
X156025000Y-79115000D01*
X159325000Y-73605000D02*
X156025000Y-73605000D01*
X159325000Y-73605000D02*
X159325000Y-79115000D01*
%TO.C,J8*%
X113950000Y-61830000D02*
X121570000Y-61830000D01*
X113950000Y-87230000D02*
X113950000Y-61830000D01*
X113950000Y-87230000D02*
X121570000Y-87230000D01*
X120300000Y-87230000D02*
X120300000Y-61830000D01*
X121570000Y-87230000D02*
X121570000Y-61830000D01*
%TO.C,J9*%
X146340000Y-56970000D02*
X161580000Y-56970000D01*
X146340000Y-63320000D02*
X161580000Y-63320000D01*
X146340000Y-64590000D02*
X146340000Y-56970000D01*
X146340000Y-64590000D02*
X161580000Y-64590000D01*
X161580000Y-64590000D02*
X161580000Y-56970000D01*
%TO.C,D1*%
X154327500Y-65590000D02*
X148817500Y-65590000D01*
X154327500Y-68890000D02*
X148817500Y-68890000D01*
X154327500Y-68890000D02*
X154327500Y-65590000D01*
%TO.C,D4*%
X125300000Y-77050000D02*
X125300000Y-80350000D01*
X125300000Y-77050000D02*
X130810000Y-77050000D01*
X125300000Y-80350000D02*
X130810000Y-80350000D01*
%TO.C,J1*%
X164557500Y-105460000D02*
X164557500Y-97780000D01*
X167217500Y-97780000D02*
X164557500Y-97780000D01*
X167217500Y-105460000D02*
X164557500Y-105460000D01*
X167217500Y-105460000D02*
X167217500Y-97780000D01*
X167217500Y-106730000D02*
X167217500Y-108060000D01*
X167217500Y-108060000D02*
X165887500Y-108060000D01*
%TO.C,TX1*%
X160677500Y-108190000D02*
X163362500Y-108190000D01*
X163362500Y-106270000D02*
X160677500Y-106270000D01*
X163362500Y-108190000D02*
X163362500Y-106270000D01*
%TO.C,J3*%
X166945000Y-82400000D02*
X165245000Y-82400000D01*
X166945000Y-91740000D02*
X165245000Y-91740000D01*
%TO.C,J7*%
X113980000Y-87680000D02*
X121600000Y-87680000D01*
X113980000Y-113080000D02*
X113980000Y-87680000D01*
X113980000Y-113080000D02*
X121600000Y-113080000D01*
X120330000Y-113080000D02*
X120330000Y-87680000D01*
X121600000Y-113080000D02*
X121600000Y-87680000D01*
%TO.C,POWER*%
X168152500Y-66680000D02*
X170837500Y-66680000D01*
X170837500Y-64760000D02*
X168152500Y-64760000D01*
X170837500Y-66680000D02*
X170837500Y-64760000D01*
%TO.C,R10*%
X158530436Y-95415000D02*
X158984564Y-95415000D01*
X158530436Y-96885000D02*
X158984564Y-96885000D01*
%TD*%
M02*
