%TF.GenerationSoftware,KiCad,Pcbnew,8.0.7*%
%TF.CreationDate,2025-10-03T17:15:43+05:30*%
%TF.ProjectId,ESP8266_PLC,45535038-3236-4365-9f50-4c432e6b6963,rev?*%
%TF.SameCoordinates,Original*%
%TF.FileFunction,Soldermask,Bot*%
%TF.FilePolarity,Negative*%
%FSLAX46Y46*%
G04 Gerber Fmt 4.6, Leading zero omitted, Abs format (unit mm)*
G04 Created by KiCad (PCBNEW 8.0.7) date 2025-10-03 17:15:43*
%MOMM*%
%LPD*%
G01*
G04 APERTURE LIST*
%ADD10R,1.600000X1.600000*%
%ADD11C,1.600000*%
%ADD12C,2.600000*%
%ADD13C,3.800000*%
%ADD14R,3.000000X3.000000*%
%ADD15C,3.000000*%
%ADD16R,1.200000X1.200000*%
%ADD17C,1.200000*%
%ADD18O,1.800000X1.800000*%
%ADD19R,1.800000X1.800000*%
%ADD20R,1.700000X1.700000*%
%ADD21O,1.700000X1.700000*%
%ADD22C,1.500000*%
%ADD23C,0.650000*%
%ADD24O,2.100000X1.000000*%
%ADD25O,1.800000X1.000000*%
G04 APERTURE END LIST*
D10*
%TO.C,C2*%
X147110000Y-71060000D03*
D11*
X147110000Y-73560000D03*
%TD*%
D12*
%TO.C,H1*%
X114230000Y-58500000D03*
D13*
X114230000Y-58500000D03*
%TD*%
D12*
%TO.C,H4*%
X114450000Y-116820000D03*
D13*
X114450000Y-116820000D03*
%TD*%
D12*
%TO.C,H3*%
X167560000Y-116560000D03*
D13*
X167560000Y-116560000D03*
%TD*%
D14*
%TO.C,J4*%
X137560000Y-60710000D03*
D15*
X142640000Y-60710000D03*
%TD*%
D16*
%TO.C,C3*%
X140250000Y-78300000D03*
D17*
X140250000Y-79800000D03*
%TD*%
D18*
%TO.C,K1*%
X129577500Y-63482500D03*
X129577500Y-56482500D03*
D19*
X124877500Y-74982500D03*
D18*
X129577500Y-74982500D03*
%TD*%
D20*
%TO.C,J2*%
X165900000Y-77610000D03*
D21*
X165900000Y-75070000D03*
X165900000Y-72530000D03*
X165900000Y-69990000D03*
%TD*%
D22*
%TO.C,Y1*%
X146820000Y-78900000D03*
X151720000Y-78900000D03*
%TD*%
D14*
%TO.C,J8*%
X117760000Y-84690000D03*
D15*
X117760000Y-79610000D03*
X117760000Y-74530000D03*
X117760000Y-69450000D03*
X117760000Y-64370000D03*
%TD*%
D14*
%TO.C,J9*%
X148880000Y-60780000D03*
D15*
X153960000Y-60780000D03*
X159040000Y-60780000D03*
%TD*%
D20*
%TO.C,J1*%
X165887500Y-106730000D03*
D21*
X165887500Y-104190000D03*
X165887500Y-101650000D03*
X165887500Y-99110000D03*
%TD*%
D23*
%TO.C,J3*%
X164440000Y-89960000D03*
X164440000Y-84180000D03*
D24*
X163940000Y-91390000D03*
D25*
X168120000Y-91390000D03*
D24*
X163940000Y-82750000D03*
D25*
X168120000Y-82750000D03*
%TD*%
D14*
%TO.C,J7*%
X117790000Y-110540000D03*
D15*
X117790000Y-105460000D03*
X117790000Y-100380000D03*
X117790000Y-95300000D03*
X117790000Y-90220000D03*
%TD*%
D12*
%TO.C,H2*%
X167840000Y-58250000D03*
D13*
X167840000Y-58250000D03*
%TD*%
M02*
