M48
; DRILL file {KiCad 8.0.7} date 2025-10-03T17:15:46+0530
; FORMAT={-:-/ absolute / inch / decimal}
; #@! TF.CreationDate,2025-10-03T17:15:46+05:30
; #@! TF.GenerationSoftware,Kicad,Pcbnew,8.0.7
; #@! TF.FileFunction,Plated,1,2,PTH
FMAT,2
INCH
; #@! TA.AperFunction,Plated,PTH,ViaDrill
T1C0.0118
; #@! TA.AperFunction,Plated,PTH,ViaDrill
T2C0.0197
; #@! TA.AperFunction,Plated,PTH,ComponentDrill
T3C0.0236
; #@! TA.AperFunction,Plated,PTH,ComponentDrill
T4C0.0315
; #@! TA.AperFunction,Plated,PTH,ComponentDrill
T5C0.0394
; #@! TA.AperFunction,Plated,PTH,ComponentDrill
T6C0.0433
; #@! TA.AperFunction,Plated,PTH,ComponentDrill
T7C0.0598
; #@! TA.AperFunction,Plated,PTH,ComponentDrill
T8C0.0866
%
G90
G05
T1
X5.7559Y-3.2358
T2
X5.0402Y-3.3169
X5.1354Y-3.3555
X5.3902Y-4.0748
X5.4004Y-3.672
X5.4035Y-3.8594
X5.4071Y-3.9299
X5.4094Y-3.9795
X5.4685Y-3.8772
X5.585Y-4.1748
X5.5969Y-3.8291
X5.6169Y-2.9902
X5.6283Y-4.3185
X5.6287Y-4.3697
X5.6291Y-4.2669
X5.631Y-4.2169
X5.6437Y-3.55
X5.6528Y-3.4778
X5.6717Y-3.8606
X5.7083Y-3.5201
X5.7445Y-3.8441
X5.9449Y-3.8941
X5.9634Y-3.6898
X5.9713Y-4.1772
X5.9768Y-3.7594
X6.1024Y-3.4742
X6.1075Y-3.3386
X6.1264Y-3.6736
X6.138Y-3.5242
X6.1398Y-3.2406
X6.1441Y-3.848
X6.2571Y-3.2287
X6.2921Y-4.1594
X6.315Y-3.3898
X6.3417Y-3.4612
X6.3437Y-3.2287
X6.376Y-3.1642
X6.424Y-4.3122
X6.4425Y-3.0213
X6.4449Y-4.1492
X6.4457Y-3.8122
T3
X5.5217Y-3.0827
X5.5217Y-3.1417
T4
X5.7803Y-3.1063
X5.7917Y-2.7976
X5.7917Y-2.8961
X5.9732Y-3.1063
T5
X6.531Y-3.902
X6.531Y-4.002
X6.531Y-4.102
X6.531Y-4.202
X6.5315Y-2.7555
X6.5315Y-2.8555
X6.5315Y-2.9555
X6.5315Y-3.0555
T6
X4.9164Y-2.9521
X5.1015Y-2.2237
X5.1015Y-2.4993
X5.1015Y-2.9521
T7
X4.6362Y-2.5343
X4.6362Y-2.7343
X4.6362Y-2.9343
X4.6362Y-3.1343
X4.6362Y-3.3343
X4.6374Y-3.552
X4.6374Y-3.752
X4.6374Y-3.952
X4.6374Y-4.152
X4.6374Y-4.352
X5.4157Y-2.3902
X5.6157Y-2.3902
X5.8614Y-2.3929
X6.0614Y-2.3929
X6.2614Y-2.3929
T8
X4.4972Y-2.3031
X4.5059Y-4.5992
X6.5969Y-4.589
X6.6079Y-2.2933
T3
G00X6.4327Y-3.2579
M15
G01X6.476Y-3.2579
M16
G05
G00X6.4327Y-3.598
M15
G01X6.476Y-3.598
M16
G05
G00X6.6031Y-3.2579
M15
G01X6.6346Y-3.2579
M16
G05
G00X6.6031Y-3.598
M15
G01X6.6346Y-3.598
M16
G05
M30
