%TF.GenerationSoftware,KiCad,Pcbnew,8.0.7*%
%TF.CreationDate,2025-10-03T17:15:42+05:30*%
%TF.ProjectId,ESP8266_PLC,45535038-3236-4365-9f50-4c432e6b6963,rev?*%
%TF.SameCoordinates,Original*%
%TF.FileFunction,Paste,Top*%
%TF.FilePolarity,Positive*%
%FSLAX46Y46*%
G04 Gerber Fmt 4.6, Leading zero omitted, Abs format (unit mm)*
G04 Created by KiCad (PCBNEW 8.0.7) date 2025-10-03 17:15:42*
%MOMM*%
%LPD*%
G01*
G04 APERTURE LIST*
G04 Aperture macros list*
%AMRoundRect*
0 Rectangle with rounded corners*
0 $1 Rounding radius*
0 $2 $3 $4 $5 $6 $7 $8 $9 X,Y pos of 4 corners*
0 Add a 4 corners polygon primitive as box body*
4,1,4,$2,$3,$4,$5,$6,$7,$8,$9,$2,$3,0*
0 Add four circle primitives for the rounded corners*
1,1,$1+$1,$2,$3*
1,1,$1+$1,$4,$5*
1,1,$1+$1,$6,$7*
1,1,$1+$1,$8,$9*
0 Add four rect primitives between the rounded corners*
20,1,$1+$1,$2,$3,$4,$5,0*
20,1,$1+$1,$4,$5,$6,$7,0*
20,1,$1+$1,$6,$7,$8,$9,0*
20,1,$1+$1,$8,$9,$2,$3,0*%
G04 Aperture macros list end*
%ADD10RoundRect,0.250000X-0.262500X-0.450000X0.262500X-0.450000X0.262500X0.450000X-0.262500X0.450000X0*%
%ADD11RoundRect,0.150000X0.587500X0.150000X-0.587500X0.150000X-0.587500X-0.150000X0.587500X-0.150000X0*%
%ADD12RoundRect,0.250000X-0.450000X0.262500X-0.450000X-0.262500X0.450000X-0.262500X0.450000X0.262500X0*%
%ADD13RoundRect,0.243750X-0.243750X-0.456250X0.243750X-0.456250X0.243750X0.456250X-0.243750X0.456250X0*%
%ADD14RoundRect,0.243750X0.243750X0.456250X-0.243750X0.456250X-0.243750X-0.456250X0.243750X-0.456250X0*%
%ADD15R,2.500000X1.000000*%
%ADD16R,1.000000X1.800000*%
%ADD17RoundRect,0.250000X0.475000X-0.250000X0.475000X0.250000X-0.475000X0.250000X-0.475000X-0.250000X0*%
%ADD18R,1.000000X1.250000*%
%ADD19RoundRect,0.375000X0.375000X-0.625000X0.375000X0.625000X-0.375000X0.625000X-0.375000X-0.625000X0*%
%ADD20RoundRect,0.500000X1.400000X-0.500000X1.400000X0.500000X-1.400000X0.500000X-1.400000X-0.500000X0*%
%ADD21RoundRect,0.225000X-0.225000X-0.250000X0.225000X-0.250000X0.225000X0.250000X-0.225000X0.250000X0*%
%ADD22RoundRect,0.250000X0.262500X0.450000X-0.262500X0.450000X-0.262500X-0.450000X0.262500X-0.450000X0*%
%ADD23RoundRect,0.150000X0.825000X0.150000X-0.825000X0.150000X-0.825000X-0.150000X0.825000X-0.150000X0*%
%ADD24RoundRect,0.250000X0.450000X-0.262500X0.450000X0.262500X-0.450000X0.262500X-0.450000X-0.262500X0*%
%ADD25RoundRect,0.250000X1.000000X0.650000X-1.000000X0.650000X-1.000000X-0.650000X1.000000X-0.650000X0*%
%ADD26RoundRect,0.250000X-0.650000X1.000000X-0.650000X-1.000000X0.650000X-1.000000X0.650000X1.000000X0*%
%ADD27RoundRect,0.250000X-1.000000X-0.650000X1.000000X-0.650000X1.000000X0.650000X-1.000000X0.650000X0*%
%ADD28RoundRect,0.150000X0.425000X-0.150000X0.425000X0.150000X-0.425000X0.150000X-0.425000X-0.150000X0*%
%ADD29RoundRect,0.075000X0.500000X-0.075000X0.500000X0.075000X-0.500000X0.075000X-0.500000X-0.075000X0*%
%ADD30O,2.100000X1.000000*%
%ADD31O,1.800000X1.000000*%
G04 APERTURE END LIST*
D10*
%TO.C,R15*%
X132167500Y-71920000D03*
X133992500Y-71920000D03*
%TD*%
D11*
%TO.C,Q1*%
X134095000Y-85360000D03*
X134095000Y-83460000D03*
X132220000Y-84410000D03*
%TD*%
D12*
%TO.C,R3*%
X129370000Y-101097500D03*
X129370000Y-102922500D03*
%TD*%
D10*
%TO.C,R5*%
X161140000Y-78385000D03*
X162965000Y-78385000D03*
%TD*%
D13*
%TO.C,L1*%
X132262500Y-75320000D03*
X134137500Y-75320000D03*
%TD*%
D10*
%TO.C,R6*%
X161100000Y-75135000D03*
X162925000Y-75135000D03*
%TD*%
D14*
%TO.C,RX1*%
X162655000Y-103700000D03*
X160780000Y-103700000D03*
%TD*%
D15*
%TO.C,U1*%
X148760000Y-110990000D03*
X148760000Y-108990000D03*
X148760000Y-106990000D03*
X148760000Y-104990000D03*
X148760000Y-102990000D03*
X148760000Y-100990000D03*
X148760000Y-98990000D03*
X148760000Y-96990000D03*
D16*
X146160000Y-95490000D03*
X144160000Y-95490000D03*
X142160000Y-95490000D03*
X140160000Y-95490000D03*
X138160000Y-95490000D03*
X136160000Y-95490000D03*
D15*
X133560000Y-96990000D03*
X133560000Y-98990000D03*
X133560000Y-100990000D03*
X133560000Y-102990000D03*
X133560000Y-104990000D03*
X133560000Y-106990000D03*
X133560000Y-108990000D03*
X133560000Y-110990000D03*
%TD*%
D17*
%TO.C,C4*%
X151190000Y-75150000D03*
X151190000Y-73250000D03*
%TD*%
D18*
%TO.C,SW1*%
X129350000Y-109565000D03*
X129350000Y-117315000D03*
%TD*%
D19*
%TO.C,U2*%
X138070000Y-73590000D03*
X140370000Y-73590000D03*
D20*
X140370000Y-67290000D03*
D19*
X142670000Y-73590000D03*
%TD*%
D21*
%TO.C,C1*%
X151610000Y-97000000D03*
X153160000Y-97000000D03*
%TD*%
D10*
%TO.C,R11*%
X157805000Y-93740000D03*
X159630000Y-93740000D03*
%TD*%
D22*
%TO.C,R1*%
X154970000Y-107290000D03*
X153145000Y-107290000D03*
%TD*%
%TO.C,R7*%
X138120000Y-85650000D03*
X136295000Y-85650000D03*
%TD*%
D10*
%TO.C,R12*%
X157022500Y-103690000D03*
X158847500Y-103690000D03*
%TD*%
D23*
%TO.C,U4*%
X153155000Y-92145000D03*
X153155000Y-90875000D03*
X153155000Y-89605000D03*
X153155000Y-88335000D03*
X153155000Y-87065000D03*
X153155000Y-85795000D03*
X153155000Y-84525000D03*
X153155000Y-83255000D03*
X148205000Y-83255000D03*
X148205000Y-84525000D03*
X148205000Y-85795000D03*
X148205000Y-87065000D03*
X148205000Y-88335000D03*
X148205000Y-89605000D03*
X148205000Y-90875000D03*
X148205000Y-92145000D03*
%TD*%
D22*
%TO.C,R9*%
X159495000Y-84580000D03*
X157670000Y-84580000D03*
%TD*%
%TO.C,R2*%
X154970000Y-105010000D03*
X153145000Y-105010000D03*
%TD*%
D18*
%TO.C,SW2*%
X153120000Y-109625000D03*
X153120000Y-117375000D03*
%TD*%
D22*
%TO.C,R8*%
X159505000Y-88970000D03*
X157680000Y-88970000D03*
%TD*%
D24*
%TO.C,R4*%
X129350000Y-98895000D03*
X129350000Y-97070000D03*
%TD*%
D25*
%TO.C,D2*%
X161430000Y-71250000D03*
X157430000Y-71250000D03*
%TD*%
D10*
%TO.C,R14*%
X164505000Y-65720000D03*
X166330000Y-65720000D03*
%TD*%
%TO.C,R13*%
X157002500Y-107260000D03*
X158827500Y-107260000D03*
%TD*%
D17*
%TO.C,C5*%
X153550000Y-75160000D03*
X153550000Y-73260000D03*
%TD*%
D26*
%TO.C,D3*%
X157675000Y-75115000D03*
X157675000Y-79115000D03*
%TD*%
D25*
%TO.C,D1*%
X152817500Y-67240000D03*
X148817500Y-67240000D03*
%TD*%
D27*
%TO.C,D4*%
X126810000Y-78700000D03*
X130810000Y-78700000D03*
%TD*%
D14*
%TO.C,TX1*%
X162615000Y-107230000D03*
X160740000Y-107230000D03*
%TD*%
D28*
%TO.C,J3*%
X163365000Y-90270000D03*
X163365000Y-89470000D03*
D29*
X163365000Y-88320000D03*
X163365000Y-87320000D03*
X163365000Y-86820000D03*
X163365000Y-85820000D03*
D28*
X163365000Y-84670000D03*
X163365000Y-83870000D03*
X163365000Y-83870000D03*
X163365000Y-84670000D03*
D29*
X163365000Y-85320000D03*
X163365000Y-86320000D03*
X163365000Y-87820000D03*
X163365000Y-88820000D03*
D28*
X163365000Y-89470000D03*
X163365000Y-90270000D03*
D30*
X163940000Y-91390000D03*
D31*
X168120000Y-91390000D03*
D30*
X163940000Y-82750000D03*
D31*
X168120000Y-82750000D03*
%TD*%
D14*
%TO.C,POWER*%
X170090000Y-65720000D03*
X168215000Y-65720000D03*
%TD*%
D10*
%TO.C,R10*%
X157845000Y-96150000D03*
X159670000Y-96150000D03*
%TD*%
M02*
